<svg width="16" height="15" viewBox="0 0 16 15" fill="none" xmlns="http://www.w3.org/2000/svg">
<path d="M7.78567 3.4928C7.58449 3.4928 7.42138 3.65592 7.42138 3.85709V7.27512L5.44987 8.26765C5.32714 8.32951 5.24968 8.45517 5.24954 8.59263C5.24941 8.7938 5.41239 8.95696 5.61352 8.95709C5.67039 8.95736 5.72651 8.94393 5.77712 8.91796L7.94931 7.8251C8.07227 7.76333 8.14987 7.63753 8.14996 7.49995V3.85709C8.14996 3.65592 7.98689 3.4928 7.78567 3.4928ZM7.78571 0.214233C3.76194 0.214233 0.5 3.47617 0.5 7.49995C0.5 11.5237 3.76194 14.7857 7.78571 14.7857C11.8075 14.7809 15.0667 11.5218 15.0714 7.49995C15.0714 3.47617 11.8095 0.214233 7.78571 0.214233ZM7.78571 14.0571C4.16429 14.0571 1.22857 11.1214 1.22857 7.49995C1.22857 3.87852 4.16429 0.942805 7.78571 0.942805C11.4055 0.946763 14.3389 3.88017 14.3429 7.49995C14.3429 11.1214 11.4071 14.0571 7.78571 14.0571Z" fill="#c11326"/>
</svg>
