<svg width="22" height="22" viewBox="0 0 22 22" fill="none" xmlns="http://www.w3.org/2000/svg">
<rect x="-0.367311" y="0.367311" width="21.2654" height="21.2654" transform="matrix(-1 0 0 1 21.2654 0)" fill="#060605" fill-opacity="0.6"/>
<rect x="-0.367311" y="0.367311" width="21.2654" height="21.2654" transform="matrix(-1 0 0 1 21.2654 0)" stroke="#8A6F6A" stroke-width="0.734622"/>
<path d="M11 4L7 7.07895M11 4L15 7.07895M11 4V2M7 7.07895L3 10.1579L11 17L19 10.1579L15 7.07895M7 7.07895L4 4M15 7.07895L18 4M11 7.5L8.5 10.5L11 13.5L13.5 10.5L11 7.5Z" stroke="#8A6F6A"/>
</svg>
