<svg width="872" height="511" viewBox="0 0 872 511" fill="none" xmlns="http://www.w3.org/2000/svg">
<path d="M23 7.77783L63.7406 7.77784" stroke="#54040c"/>
<path d="M23 23.0555L63.7406 23.0555" stroke="#54040c"/>
<path d="M35.7314 15.4166V17.4537H38.2777V13.3796H33.1852V20H40.824V10.3241H23.5092V20H30.6389V13.3796H26.0555V17.4537H28.6018V15.4166" stroke="#54040c"/>
<path d="M58.1388 15.4166V17.4537H60.6851V13.3796H55.5925V20H63.2314V10.3241H45.9166V20H53.0462V13.3796H48.4629V17.4537H51.0092V15.4166" stroke="#54040c"/>
<path d="M43.3703 20.5093V9.8149" stroke="#54040c"/>
<path d="M63.7407 7.77783L108.555 7.77784" stroke="#54040c"/>
<path d="M63.7408 23.0555L108.555 23.0555" stroke="#54040c"/>
<path d="M80.5462 15.4166V17.4537H83.0925V13.3796H77.9999V20H85.6388V10.3241H68.324V20H75.4536V13.3796H70.8703V17.4537H73.4166V15.4166" stroke="#54040c"/>
<path d="M102.954 15.4166V17.4537H105.5V13.3796H100.407V20H108.046V10.3241H90.7314V20H97.861V13.3796H93.2777V17.4537H95.824V15.4166" stroke="#54040c"/>
<path d="M88.1851 20.5093V9.8149" stroke="#54040c"/>
<path d="M65.7778 20.5093V9.8149" stroke="#54040c"/>
<path d="M108.556 7.77783L153.37 7.77784" stroke="#54040c"/>
<path d="M108.556 23.0555L153.37 23.0555" stroke="#54040c"/>
<path d="M125.361 15.4166V17.4537H127.907V13.3796H122.815V20H130.454V10.3241H113.139V20H120.268V13.3796H115.685V17.4537H118.231V15.4166" stroke="#54040c"/>
<path d="M147.768 15.4166V17.4537H150.315V13.3796H145.222V20H152.861V10.3241H135.546V20H142.676V13.3796H138.093V17.4537H140.639V15.4166" stroke="#54040c"/>
<path d="M133 20.5093V9.8149" stroke="#54040c"/>
<path d="M110.593 20.5093V9.8149" stroke="#54040c"/>
<path d="M153.37 7.77783L198.185 7.77784" stroke="#54040c"/>
<path d="M153.37 23.0555L198.185 23.0555" stroke="#54040c"/>
<path d="M170.176 15.4166V17.4537H172.722V13.3796H167.63V20H175.269V10.3241H157.954V20H165.083V13.3796H160.5V17.4537H163.046V15.4166" stroke="#54040c"/>
<path d="M192.583 15.4166V17.4537H195.13V13.3796H190.037V20H197.676V10.3241H180.361V20H187.491V13.3796H182.907V17.4537H185.454V15.4166" stroke="#54040c"/>
<path d="M177.815 20.5093V9.8149" stroke="#54040c"/>
<path d="M155.407 20.5093V9.8149" stroke="#54040c"/>
<path d="M198.185 7.77783L243 7.77784" stroke="#54040c"/>
<path d="M198.185 23.0555L243 23.0555" stroke="#54040c"/>
<path d="M214.991 15.4166V17.4537H217.537V13.3796H212.444V20H220.083V10.3241H202.769V20H209.898V13.3796H205.315V17.4537H207.861V15.4166" stroke="#54040c"/>
<path d="M237.398 15.4166V17.4537H239.944V13.3796H234.852V20H242.491V10.3241H225.176V20H232.306V13.3796H227.722V17.4537H230.268V15.4166" stroke="#54040c"/>
<path d="M222.63 20.5093V9.8149" stroke="#54040c"/>
<path d="M200.222 20.5093V9.8149" stroke="#54040c"/>
<path d="M243 7.77783L287.815 7.77784" stroke="#54040c"/>
<path d="M243 23.0555L287.815 23.0555" stroke="#54040c"/>
<path d="M259.806 15.4166V17.4537H262.352V13.3796H257.259V20H264.898V10.3241H247.583V20H254.713V13.3796H250.13V17.4537H252.676V15.4166" stroke="#54040c"/>
<path d="M282.213 15.4166V17.4537H284.759V13.3796H279.667V20H287.305V10.3241H269.991V20H277.12V13.3796H272.537V17.4537H275.083V15.4166" stroke="#54040c"/>
<path d="M267.445 20.5093V9.8149" stroke="#54040c"/>
<path d="M245.037 20.5093V9.8149" stroke="#54040c"/>
<path d="M287.815 7.77783L332.63 7.77784" stroke="#54040c"/>
<path d="M287.815 23.0555L332.63 23.0555" stroke="#54040c"/>
<path d="M304.62 15.4166V17.4537H307.167V13.3796H302.074V20H309.713V10.3241H292.398V20H299.528V13.3796H294.944V17.4537H297.491V15.4166" stroke="#54040c"/>
<path d="M327.028 15.4166V17.4537H329.574V13.3796H324.481V20H332.12V10.3241H314.806V20H321.935V13.3796H317.352V17.4537H319.898V15.4166" stroke="#54040c"/>
<path d="M312.259 20.5093V9.8149" stroke="#54040c"/>
<path d="M289.852 20.5093V9.8149" stroke="#54040c"/>
<path d="M332.63 7.77783L377.444 7.77784" stroke="#54040c"/>
<path d="M332.63 23.0555L377.444 23.0555" stroke="#54040c"/>
<path d="M349.435 15.4166V17.4537H351.981V13.3796H346.889V20H354.528V10.3241H337.213V20H344.343V13.3796H339.759V17.4537H342.306V15.4166" stroke="#54040c"/>
<path d="M371.842 15.4166V17.4537H374.389V13.3796H369.296V20H376.935V10.3241H359.62V20H366.75V13.3796H362.167V17.4537H364.713V15.4166" stroke="#54040c"/>
<path d="M357.074 20.5093V9.8149" stroke="#54040c"/>
<path d="M334.667 20.5093V9.8149" stroke="#54040c"/>
<path d="M377.445 7.77783L422.259 7.77784" stroke="#54040c"/>
<path d="M377.444 23.0555L422.259 23.0555" stroke="#54040c"/>
<path d="M394.25 15.4166V17.4537H396.796V13.3796H391.704V20H399.343V10.3241H382.028V20H389.157V13.3796H384.574V17.4537H387.12V15.4166" stroke="#54040c"/>
<path d="M416.657 15.4166V17.4537H419.204V13.3796H414.111V20H421.75V10.3241H404.435V20H411.565V13.3796H406.981V17.4537H409.528V15.4166" stroke="#54040c"/>
<path d="M401.889 20.5093V9.8149" stroke="#54040c"/>
<path d="M379.482 20.5093V9.8149" stroke="#54040c"/>
<path d="M422.259 7.77783L467.074 7.77784" stroke="#54040c"/>
<path d="M422.259 23.0555L467.074 23.0555" stroke="#54040c"/>
<path d="M439.065 15.4166V17.4537H441.611V13.3796H436.519V20H444.157V10.3241H426.843V20H433.972V13.3796H429.389V17.4537H431.935V15.4166" stroke="#54040c"/>
<path d="M461.472 15.4166V17.4537H464.018V13.3796H458.926V20H466.565V10.3241H449.25V20H456.38V13.3796H451.796V17.4537H454.343V15.4166" stroke="#54040c"/>
<path d="M446.704 20.5093V9.8149" stroke="#54040c"/>
<path d="M424.296 20.5093V9.8149" stroke="#54040c"/>
<path d="M467.074 7.77783L511.889 7.77784" stroke="#54040c"/>
<path d="M467.074 23.0555L511.889 23.0555" stroke="#54040c"/>
<path d="M483.88 15.4166V17.4537H486.426V13.3796H481.333V20H488.972V10.3241H471.657V20H478.787V13.3796H474.204V17.4537H476.75V15.4166" stroke="#54040c"/>
<path d="M506.287 15.4166V17.4537H508.833V13.3796H503.741V20H511.38V10.3241H494.065V20H501.194V13.3796H496.611V17.4537H499.157V15.4166" stroke="#54040c"/>
<path d="M491.518 20.5093V9.8149" stroke="#54040c"/>
<path d="M469.111 20.5093V9.8149" stroke="#54040c"/>
<path d="M511.889 7.77783L556.704 7.77784" stroke="#54040c"/>
<path d="M511.889 23.0555L556.704 23.0555" stroke="#54040c"/>
<path d="M528.694 15.4166V17.4537H531.241V13.3796H526.148V20H533.787V10.3241H516.472V20H523.602V13.3796H519.019V17.4537H521.565V15.4166" stroke="#54040c"/>
<path d="M551.102 15.4166V17.4537H553.648V13.3796H548.556V20H556.194V10.3241H538.88V20H546.009V13.3796H541.426V17.4537H543.972V15.4166" stroke="#54040c"/>
<path d="M536.333 20.5093V9.8149" stroke="#54040c"/>
<path d="M513.926 20.5093V9.8149" stroke="#54040c"/>
<path d="M556.704 7.77783L601.518 7.77784" stroke="#54040c"/>
<path d="M556.704 23.0555L601.518 23.0555" stroke="#54040c"/>
<path d="M573.509 15.4166V17.4537H576.056V13.3796H570.963V20H578.602V10.3241H561.287V20H568.417V13.3796H563.833V17.4537H566.38V15.4166" stroke="#54040c"/>
<path d="M595.917 15.4166V17.4537H598.463V13.3796H593.37V20H601.009V10.3241H583.694V20H590.824V13.3796H586.241V17.4537H588.787V15.4166" stroke="#54040c"/>
<path d="M581.148 20.5093V9.8149" stroke="#54040c"/>
<path d="M558.741 20.5093V9.8149" stroke="#54040c"/>
<path d="M601.518 7.77783L646.333 7.77784" stroke="#54040c"/>
<path d="M601.518 23.0555L646.333 23.0555" stroke="#54040c"/>
<path d="M618.324 15.4166V17.4537H620.87V13.3796H615.778V20H623.417V10.3241H606.102V20H613.231V13.3796H608.648V17.4537H611.194V15.4166" stroke="#54040c"/>
<path d="M640.731 15.4166V17.4537H643.278V13.3796H638.185V20H645.824V10.3241H628.509V20H635.639V13.3796H631.055V17.4537H633.602V15.4166" stroke="#54040c"/>
<path d="M625.963 20.5093V9.8149" stroke="#54040c"/>
<path d="M603.555 20.5093V9.8149" stroke="#54040c"/>
<path d="M646.333 7.77783L691.148 7.77784" stroke="#54040c"/>
<path d="M646.333 23.0555L691.148 23.0555" stroke="#54040c"/>
<path d="M663.139 15.4166V17.4537H665.685V13.3796H660.593V20H668.231V10.3241H650.917V20H658.046V13.3796H653.463V17.4537H656.009V15.4166" stroke="#54040c"/>
<path d="M685.546 15.4166V17.4537H688.092V13.3796H683V20H690.639V10.3241H673.324V20H680.454V13.3796H675.87V17.4537H678.417V15.4166" stroke="#54040c"/>
<path d="M670.778 20.5093V9.8149" stroke="#54040c"/>
<path d="M648.37 20.5093V9.8149" stroke="#54040c"/>
<path d="M691.148 7.77783L735.963 7.77784" stroke="#54040c"/>
<path d="M691.148 23.0555L735.963 23.0555" stroke="#54040c"/>
<path d="M707.954 15.4166V17.4537H710.5V13.3796H705.407V20H713.046V10.3241H695.732V20H702.861V13.3796H698.278V17.4537H700.824V15.4166" stroke="#54040c"/>
<path d="M730.361 15.4166V17.4537H732.908V13.3796H727.815V20H735.454V10.3241H718.139V20H725.269V13.3796H720.685V17.4537H723.232V15.4166" stroke="#54040c"/>
<path d="M715.593 20.5093V9.8149" stroke="#54040c"/>
<path d="M693.185 20.5093V9.8149" stroke="#54040c"/>
<path d="M735.963 7.77783L780.778 7.77784" stroke="#54040c"/>
<path d="M735.963 23.0555L780.778 23.0555" stroke="#54040c"/>
<path d="M752.769 15.4166V17.4537H755.315V13.3796H750.222V20H757.861V10.3241H740.546V20H747.676V13.3796H743.093V17.4537H745.639V15.4166" stroke="#54040c"/>
<path d="M775.176 15.4166V17.4537H777.722V13.3796H772.63V20H780.269V10.3241H762.954V20H770.083V13.3796H765.5V17.4537H768.046V15.4166" stroke="#54040c"/>
<path d="M760.407 20.5093V9.8149" stroke="#54040c"/>
<path d="M738 20.5093V9.8149" stroke="#54040c"/>
<path d="M780.778 7.77783L825.592 7.77784" stroke="#54040c"/>
<path d="M780.778 23.0555L825.593 23.0555" stroke="#54040c"/>
<path d="M797.583 15.4166V17.4537H800.13V13.3796H795.037V20H802.676V10.3241H785.361V20H792.491V13.3796H787.907V17.4537H790.454V15.4166" stroke="#54040c"/>
<path d="M819.991 15.4166V17.4537H822.537V13.3796H817.444V20H825.083V10.3241H807.769V20H814.898V13.3796H810.315V17.4537H812.861V15.4166" stroke="#54040c"/>
<path d="M805.222 20.5093V9.8149" stroke="#54040c"/>
<path d="M782.815 20.5093V9.8149" stroke="#54040c"/>
<path d="M825.593 7.77783L848 7.77783" stroke="#54040c"/>
<path d="M825.593 23.0555L848 23.0555" stroke="#54040c"/>
<path d="M842.398 15.4166V17.4537H844.945V13.3796H839.852V20H847.491V10.3241H830.176V20H837.306V13.3796H832.722V17.4537H835.269V15.4166" stroke="#54040c"/>
<path d="M827.63 20.5093V9.8149" stroke="#54040c"/>
<path d="M23 502.278L63.7406 502.278" stroke="#54040c"/>
<path d="M23 487L63.7406 487" stroke="#54040c"/>
<path d="M35.7314 494.639V492.602H38.2777V496.676H33.1852V490.056H40.824V499.732H23.5092V490.056H30.6389V496.676H26.0555V492.602H28.6018V494.639" stroke="#54040c"/>
<path d="M58.1388 494.639V492.602H60.6851V496.676H55.5925V490.056H63.2314V499.732H45.9166V490.056H53.0462V496.676H48.4629V492.602H51.0092V494.639" stroke="#54040c"/>
<path d="M43.3703 489.546V500.241" stroke="#54040c"/>
<path d="M63.7407 502.278L108.555 502.278" stroke="#54040c"/>
<path d="M63.7408 487L108.555 487" stroke="#54040c"/>
<path d="M80.5462 494.639V492.602H83.0925V496.676H77.9999V490.056H85.6388V499.732H68.324V490.056H75.4536V496.676H70.8703V492.602H73.4166V494.639" stroke="#54040c"/>
<path d="M102.954 494.639V492.602H105.5V496.676H100.407V490.056H108.046V499.732H90.7314V490.056H97.861V496.676H93.2777V492.602H95.824V494.639" stroke="#54040c"/>
<path d="M88.1851 489.546V500.241" stroke="#54040c"/>
<path d="M65.7778 489.546V500.241" stroke="#54040c"/>
<path d="M108.556 502.278L153.37 502.278" stroke="#54040c"/>
<path d="M108.556 487L153.37 487" stroke="#54040c"/>
<path d="M125.361 494.639V492.602H127.907V496.676H122.815V490.056H130.454V499.732H113.139V490.056H120.268V496.676H115.685V492.602H118.231V494.639" stroke="#54040c"/>
<path d="M147.768 494.639V492.602H150.315V496.676H145.222V490.056H152.861V499.732H135.546V490.056H142.676V496.676H138.093V492.602H140.639V494.639" stroke="#54040c"/>
<path d="M133 489.546V500.241" stroke="#54040c"/>
<path d="M110.593 489.546V500.241" stroke="#54040c"/>
<path d="M153.37 502.278L198.185 502.278" stroke="#54040c"/>
<path d="M153.37 487L198.185 487" stroke="#54040c"/>
<path d="M170.176 494.639V492.602H172.722V496.676H167.63V490.056H175.269V499.732H157.954V490.056H165.083V496.676H160.5V492.602H163.046V494.639" stroke="#54040c"/>
<path d="M192.583 494.639V492.602H195.13V496.676H190.037V490.056H197.676V499.732H180.361V490.056H187.491V496.676H182.907V492.602H185.454V494.639" stroke="#54040c"/>
<path d="M177.815 489.546V500.241" stroke="#54040c"/>
<path d="M155.407 489.546V500.241" stroke="#54040c"/>
<path d="M198.185 502.278L243 502.278" stroke="#54040c"/>
<path d="M198.185 487L243 487" stroke="#54040c"/>
<path d="M214.991 494.639V492.602H217.537V496.676H212.444V490.056H220.083V499.732H202.769V490.056H209.898V496.676H205.315V492.602H207.861V494.639" stroke="#54040c"/>
<path d="M237.398 494.639V492.602H239.944V496.676H234.852V490.056H242.491V499.732H225.176V490.056H232.306V496.676H227.722V492.602H230.268V494.639" stroke="#54040c"/>
<path d="M222.63 489.546V500.241" stroke="#54040c"/>
<path d="M200.222 489.546V500.241" stroke="#54040c"/>
<path d="M243 502.278L287.815 502.278" stroke="#54040c"/>
<path d="M243 487L287.815 487" stroke="#54040c"/>
<path d="M259.806 494.639V492.602H262.352V496.676H257.259V490.056H264.898V499.732H247.583V490.056H254.713V496.676H250.13V492.602H252.676V494.639" stroke="#54040c"/>
<path d="M282.213 494.639V492.602H284.759V496.676H279.667V490.056H287.305V499.732H269.991V490.056H277.12V496.676H272.537V492.602H275.083V494.639" stroke="#54040c"/>
<path d="M267.445 489.546V500.241" stroke="#54040c"/>
<path d="M245.037 489.546V500.241" stroke="#54040c"/>
<path d="M287.815 502.278L332.63 502.278" stroke="#54040c"/>
<path d="M287.815 487L332.63 487" stroke="#54040c"/>
<path d="M304.62 494.639V492.602H307.167V496.676H302.074V490.056H309.713V499.732H292.398V490.056H299.528V496.676H294.944V492.602H297.491V494.639" stroke="#54040c"/>
<path d="M327.028 494.639V492.602H329.574V496.676H324.481V490.056H332.12V499.732H314.806V490.056H321.935V496.676H317.352V492.602H319.898V494.639" stroke="#54040c"/>
<path d="M312.259 489.546V500.241" stroke="#54040c"/>
<path d="M289.852 489.546V500.241" stroke="#54040c"/>
<path d="M332.63 502.278L377.444 502.278" stroke="#54040c"/>
<path d="M332.63 487L377.444 487" stroke="#54040c"/>
<path d="M349.435 494.639V492.602H351.981V496.676H346.889V490.056H354.528V499.732H337.213V490.056H344.343V496.676H339.759V492.602H342.306V494.639" stroke="#54040c"/>
<path d="M371.842 494.639V492.602H374.389V496.676H369.296V490.056H376.935V499.732H359.62V490.056H366.75V496.676H362.167V492.602H364.713V494.639" stroke="#54040c"/>
<path d="M357.074 489.546V500.241" stroke="#54040c"/>
<path d="M334.667 489.546V500.241" stroke="#54040c"/>
<path d="M377.445 502.278L422.259 502.278" stroke="#54040c"/>
<path d="M377.444 487L422.259 487" stroke="#54040c"/>
<path d="M394.25 494.639V492.602H396.796V496.676H391.704V490.056H399.343V499.732H382.028V490.056H389.157V496.676H384.574V492.602H387.12V494.639" stroke="#54040c"/>
<path d="M416.657 494.639V492.602H419.204V496.676H414.111V490.056H421.75V499.732H404.435V490.056H411.565V496.676H406.981V492.602H409.528V494.639" stroke="#54040c"/>
<path d="M401.889 489.546V500.241" stroke="#54040c"/>
<path d="M379.482 489.546V500.241" stroke="#54040c"/>
<path d="M422.259 502.278L467.074 502.278" stroke="#54040c"/>
<path d="M422.259 487L467.074 487" stroke="#54040c"/>
<path d="M439.065 494.639V492.602H441.611V496.676H436.519V490.056H444.157V499.732H426.843V490.056H433.972V496.676H429.389V492.602H431.935V494.639" stroke="#54040c"/>
<path d="M461.472 494.639V492.602H464.018V496.676H458.926V490.056H466.565V499.732H449.25V490.056H456.38V496.676H451.796V492.602H454.343V494.639" stroke="#54040c"/>
<path d="M446.704 489.546V500.241" stroke="#54040c"/>
<path d="M424.296 489.546V500.241" stroke="#54040c"/>
<path d="M467.074 502.278L511.889 502.278" stroke="#54040c"/>
<path d="M467.074 487L511.889 487" stroke="#54040c"/>
<path d="M483.88 494.639V492.602H486.426V496.676H481.333V490.056H488.972V499.732H471.657V490.056H478.787V496.676H474.204V492.602H476.75V494.639" stroke="#54040c"/>
<path d="M506.287 494.639V492.602H508.833V496.676H503.741V490.056H511.38V499.732H494.065V490.056H501.194V496.676H496.611V492.602H499.157V494.639" stroke="#54040c"/>
<path d="M491.518 489.546V500.241" stroke="#54040c"/>
<path d="M469.111 489.546V500.241" stroke="#54040c"/>
<path d="M511.889 502.278L556.704 502.278" stroke="#54040c"/>
<path d="M511.889 487L556.704 487" stroke="#54040c"/>
<path d="M528.694 494.639V492.602H531.241V496.676H526.148V490.056H533.787V499.732H516.472V490.056H523.602V496.676H519.019V492.602H521.565V494.639" stroke="#54040c"/>
<path d="M551.102 494.639V492.602H553.648V496.676H548.556V490.056H556.194V499.732H538.88V490.056H546.009V496.676H541.426V492.602H543.972V494.639" stroke="#54040c"/>
<path d="M536.333 489.546V500.241" stroke="#54040c"/>
<path d="M513.926 489.546V500.241" stroke="#54040c"/>
<path d="M556.704 502.278L601.518 502.278" stroke="#54040c"/>
<path d="M556.704 487L601.518 487" stroke="#54040c"/>
<path d="M573.509 494.639V492.602H576.056V496.676H570.963V490.056H578.602V499.732H561.287V490.056H568.417V496.676H563.833V492.602H566.38V494.639" stroke="#54040c"/>
<path d="M595.917 494.639V492.602H598.463V496.676H593.37V490.056H601.009V499.732H583.694V490.056H590.824V496.676H586.241V492.602H588.787V494.639" stroke="#54040c"/>
<path d="M581.148 489.546V500.241" stroke="#54040c"/>
<path d="M558.741 489.546V500.241" stroke="#54040c"/>
<path d="M601.518 502.278L646.333 502.278" stroke="#54040c"/>
<path d="M601.518 487L646.333 487" stroke="#54040c"/>
<path d="M618.324 494.639V492.602H620.87V496.676H615.778V490.056H623.417V499.732H606.102V490.056H613.231V496.676H608.648V492.602H611.194V494.639" stroke="#54040c"/>
<path d="M640.731 494.639V492.602H643.278V496.676H638.185V490.056H645.824V499.732H628.509V490.056H635.639V496.676H631.055V492.602H633.602V494.639" stroke="#54040c"/>
<path d="M625.963 489.546V500.241" stroke="#54040c"/>
<path d="M603.555 489.546V500.241" stroke="#54040c"/>
<path d="M646.333 502.278L691.148 502.278" stroke="#54040c"/>
<path d="M646.333 487L691.148 487" stroke="#54040c"/>
<path d="M663.139 494.639V492.602H665.685V496.676H660.593V490.056H668.231V499.732H650.917V490.056H658.046V496.676H653.463V492.602H656.009V494.639" stroke="#54040c"/>
<path d="M685.546 494.639V492.602H688.092V496.676H683V490.056H690.639V499.732H673.324V490.056H680.454V496.676H675.87V492.602H678.417V494.639" stroke="#54040c"/>
<path d="M670.778 489.546V500.241" stroke="#54040c"/>
<path d="M648.37 489.546V500.241" stroke="#54040c"/>
<path d="M691.148 502.278L735.963 502.278" stroke="#54040c"/>
<path d="M691.148 487L735.963 487" stroke="#54040c"/>
<path d="M707.954 494.639V492.602H710.5V496.676H705.407V490.056H713.046V499.732H695.732V490.056H702.861V496.676H698.278V492.602H700.824V494.639" stroke="#54040c"/>
<path d="M730.361 494.639V492.602H732.908V496.676H727.815V490.056H735.454V499.732H718.139V490.056H725.269V496.676H720.685V492.602H723.232V494.639" stroke="#54040c"/>
<path d="M715.593 489.546V500.241" stroke="#54040c"/>
<path d="M693.185 489.546V500.241" stroke="#54040c"/>
<path d="M735.963 502.278L780.778 502.278" stroke="#54040c"/>
<path d="M735.963 487L780.778 487" stroke="#54040c"/>
<path d="M752.769 494.639V492.602H755.315V496.676H750.222V490.056H757.861V499.732H740.546V490.056H747.676V496.676H743.093V492.602H745.639V494.639" stroke="#54040c"/>
<path d="M775.176 494.639V492.602H777.722V496.676H772.63V490.056H780.269V499.732H762.954V490.056H770.083V496.676H765.5V492.602H768.046V494.639" stroke="#54040c"/>
<path d="M760.407 489.546V500.241" stroke="#54040c"/>
<path d="M738 489.546V500.241" stroke="#54040c"/>
<path d="M780.778 502.278L825.592 502.278" stroke="#54040c"/>
<path d="M780.778 487L825.593 487" stroke="#54040c"/>
<path d="M797.583 494.639V492.602H800.13V496.676H795.037V490.056H802.676V499.732H785.361V490.056H792.491V496.676H787.907V492.602H790.454V494.639" stroke="#54040c"/>
<path d="M819.991 494.639V492.602H822.537V496.676H817.444V490.056H825.083V499.732H807.769V490.056H814.898V496.676H810.315V492.602H812.861V494.639" stroke="#54040c"/>
<path d="M805.222 489.546V500.241" stroke="#54040c"/>
<path d="M782.815 489.546V500.241" stroke="#54040c"/>
<path d="M825.593 502.278L848 502.278" stroke="#54040c"/>
<path d="M825.593 487L848 487" stroke="#54040c"/>
<path d="M842.398 494.639V492.602H844.945V496.676H839.852V490.056H847.491V499.732H830.176V490.056H837.306V496.676H832.722V492.602H835.269V494.639" stroke="#54040c"/>
<path d="M827.63 489.546V500.241" stroke="#54040c"/>
<path d="M8.00003 22L8.00003 62.7406" stroke="#54040c"/>
<path d="M23.2777 22L23.2777 62.7406" stroke="#54040c"/>
<path d="M15.6388 34.7314L17.6759 34.7314L17.6759 37.2777L13.6018 37.2777L13.6018 32.1851L20.2222 32.1851L20.2222 39.824L10.5463 39.824L10.5463 22.5092L20.2222 22.5092L20.2222 29.6388L13.6018 29.6388L13.6018 25.0555L17.6759 25.0555L17.6759 27.6018L15.6388 27.6018" stroke="#54040c"/>
<path d="M15.6388 57.1388L17.6759 57.1388L17.6759 59.6851L13.6018 59.6851L13.6018 54.5925L20.2222 54.5925L20.2222 62.2314L10.5463 62.2314L10.5463 44.9166L20.2222 44.9166L20.2222 52.0462L13.6018 52.0462L13.6018 47.4629L17.6759 47.4629L17.6759 50.0092L15.6388 50.0092" stroke="#54040c"/>
<path d="M20.7315 42.3703L10.0371 42.3703" stroke="#54040c"/>
<path d="M8.00003 62.7407L8.00003 107.555" stroke="#54040c"/>
<path d="M23.2777 62.7408L23.2777 107.555" stroke="#54040c"/>
<path d="M15.6388 79.5463L17.6759 79.5463L17.6759 82.0926L13.6018 82.0926L13.6018 77L20.2222 77L20.2222 84.6388L10.5463 84.6388L10.5463 67.3241L20.2222 67.3241L20.2222 74.4537L13.6018 74.4537L13.6018 69.8704L17.6759 69.8704L17.6759 72.4166L15.6388 72.4166" stroke="#54040c"/>
<path d="M15.6388 101.954L17.6759 101.954L17.6759 104.5L13.6018 104.5L13.6018 99.4073L20.2222 99.4073L20.2222 107.046L10.5463 107.046L10.5463 89.7314L20.2222 89.7314L20.2222 96.861L13.6018 96.861L13.6018 92.2777L17.6759 92.2777L17.6759 94.824L15.6388 94.824" stroke="#54040c"/>
<path d="M20.7315 87.1852L10.0371 87.1852" stroke="#54040c"/>
<path d="M20.7315 64.7778L10.0371 64.7778" stroke="#54040c"/>
<path d="M8.00003 107.556L8.00003 152.37" stroke="#54040c"/>
<path d="M23.2777 107.556L23.2777 152.37" stroke="#54040c"/>
<path d="M15.6388 124.361L17.6759 124.361L17.6759 126.907L13.6018 126.907L13.6018 121.815L20.2222 121.815L20.2222 129.454L10.5463 129.454L10.5463 112.139L20.2222 112.139L20.2222 119.268L13.6018 119.268L13.6018 114.685L17.6759 114.685L17.6759 117.231L15.6388 117.231" stroke="#54040c"/>
<path d="M15.6388 146.768L17.6759 146.768L17.6759 149.315L13.6018 149.315L13.6018 144.222L20.2222 144.222L20.2222 151.861L10.5463 151.861L10.5463 134.546L20.2222 134.546L20.2222 141.676L13.6018 141.676L13.6018 137.093L17.6759 137.093L17.6759 139.639L15.6388 139.639" stroke="#54040c"/>
<path d="M20.7315 132L10.0371 132" stroke="#54040c"/>
<path d="M20.7315 109.593L10.0371 109.593" stroke="#54040c"/>
<path d="M8.00003 152.37L8.00003 197.185" stroke="#54040c"/>
<path d="M23.2777 152.37L23.2777 197.185" stroke="#54040c"/>
<path d="M15.6388 169.176L17.6759 169.176L17.6759 171.722L13.6018 171.722L13.6018 166.63L20.2222 166.63L20.2222 174.269L10.5463 174.269L10.5463 156.954L20.2222 156.954L20.2222 164.083L13.6018 164.083L13.6018 159.5L17.6759 159.5L17.6759 162.046L15.6388 162.046" stroke="#54040c"/>
<path d="M15.6388 191.583L17.6759 191.583L17.6759 194.13L13.6018 194.13L13.6018 189.037L20.2222 189.037L20.2222 196.676L10.5463 196.676L10.5463 179.361L20.2222 179.361L20.2222 186.491L13.6018 186.491L13.6018 181.907L17.6759 181.907L17.6759 184.454L15.6388 184.454" stroke="#54040c"/>
<path d="M20.7315 176.815L10.0371 176.815" stroke="#54040c"/>
<path d="M20.7315 154.407L10.0371 154.407" stroke="#54040c"/>
<path d="M8.00003 197.185L8.00003 242" stroke="#54040c"/>
<path d="M23.2777 197.185L23.2777 242" stroke="#54040c"/>
<path d="M15.6388 213.991L17.6759 213.991L17.6759 216.537L13.6018 216.537L13.6018 211.444L20.2222 211.444L20.2222 219.083L10.5463 219.083L10.5463 201.769L20.2222 201.769L20.2222 208.898L13.6018 208.898L13.6018 204.315L17.6759 204.315L17.6759 206.861L15.6388 206.861" stroke="#54040c"/>
<path d="M15.6388 236.398L17.6759 236.398L17.6759 238.944L13.6018 238.944L13.6018 233.852L20.2222 233.852L20.2222 241.491L10.5463 241.491L10.5463 224.176L20.2222 224.176L20.2222 231.306L13.6018 231.306L13.6018 226.722L17.6759 226.722L17.6759 229.268L15.6388 229.268" stroke="#54040c"/>
<path d="M20.7315 221.63L10.0371 221.63" stroke="#54040c"/>
<path d="M20.7315 199.222L10.0371 199.222" stroke="#54040c"/>
<path d="M8.00003 242L8.00003 286.815" stroke="#54040c"/>
<path d="M23.2777 242L23.2777 286.815" stroke="#54040c"/>
<path d="M15.6388 258.806L17.6759 258.806L17.6759 261.352L13.6018 261.352L13.6018 256.259L20.2222 256.259L20.2222 263.898L10.5463 263.898L10.5463 246.583L20.2222 246.583L20.2222 253.713L13.6018 253.713L13.6018 249.13L17.6759 249.13L17.6759 251.676L15.6388 251.676" stroke="#54040c"/>
<path d="M15.6388 281.213L17.6759 281.213L17.6759 283.759L13.6018 283.759L13.6018 278.667L20.2222 278.667L20.2222 286.306L10.5463 286.306L10.5463 268.991L20.2222 268.991L20.2222 276.12L13.6018 276.12L13.6018 271.537L17.6759 271.537L17.6759 274.083L15.6388 274.083" stroke="#54040c"/>
<path d="M20.7315 266.444L10.0371 266.444" stroke="#54040c"/>
<path d="M20.7315 244.037L10.0371 244.037" stroke="#54040c"/>
<path d="M8.00003 286.815L8.00003 331.63" stroke="#54040c"/>
<path d="M23.2777 286.815L23.2777 331.63" stroke="#54040c"/>
<path d="M15.6388 303.62L17.6759 303.62L17.6759 306.167L13.6018 306.167L13.6018 301.074L20.2222 301.074L20.2222 308.713L10.5463 308.713L10.5463 291.398L20.2222 291.398L20.2222 298.528L13.6018 298.528L13.6018 293.944L17.6759 293.944L17.6759 296.491L15.6388 296.491" stroke="#54040c"/>
<path d="M15.6388 326.028L17.6759 326.028L17.6759 328.574L13.6018 328.574L13.6018 323.481L20.2222 323.481L20.2222 331.12L10.5463 331.12L10.5463 313.805L20.2222 313.805L20.2222 320.935L13.6018 320.935L13.6018 316.352L17.6759 316.352L17.6759 318.898L15.6388 318.898" stroke="#54040c"/>
<path d="M20.7315 311.259L10.0371 311.259" stroke="#54040c"/>
<path d="M20.7315 288.852L10.0371 288.852" stroke="#54040c"/>
<path d="M8.00003 331.63L8.00003 376.444" stroke="#54040c"/>
<path d="M23.2777 331.63L23.2777 376.444" stroke="#54040c"/>
<path d="M15.6388 348.435L17.6759 348.435L17.6759 350.981L13.6018 350.981L13.6018 345.889L20.2222 345.889L20.2222 353.528L10.5463 353.528L10.5463 336.213L20.2222 336.213L20.2222 343.343L13.6018 343.343L13.6018 338.759L17.6759 338.759L17.6759 341.306L15.6388 341.306" stroke="#54040c"/>
<path d="M15.6388 370.842L17.6759 370.842L17.6759 373.389L13.6018 373.389L13.6018 368.296L20.2222 368.296L20.2222 375.935L10.5463 375.935L10.5463 358.62L20.2222 358.62L20.2222 365.75L13.6018 365.75L13.6018 361.167L17.6759 361.167L17.6759 363.713L15.6388 363.713" stroke="#54040c"/>
<path d="M20.7315 356.074L10.0371 356.074" stroke="#54040c"/>
<path d="M20.7315 333.667L10.0371 333.667" stroke="#54040c"/>
<path d="M8 376.445L8 421.259" stroke="#54040c"/>
<path d="M23.2777 376.444L23.2777 421.259" stroke="#54040c"/>
<path d="M15.6388 393.25L17.6758 393.25L17.6758 395.796L13.6018 395.796L13.6018 390.704L20.2221 390.704L20.2221 398.343L10.5462 398.343L10.5462 381.028L20.2221 381.028L20.2221 388.157L13.6018 388.157L13.6018 383.574L17.6758 383.574L17.6758 386.12L15.6388 386.12" stroke="#54040c"/>
<path d="M15.6388 415.657L17.6758 415.657L17.6758 418.204L13.6018 418.204L13.6018 413.111L20.2221 413.111L20.2221 420.75L10.5462 420.75L10.5462 403.435L20.2221 403.435L20.2221 410.565L13.6018 410.565L13.6018 405.981L17.6758 405.981L17.6758 408.528L15.6388 408.528" stroke="#54040c"/>
<path d="M20.7315 400.889L10.0371 400.889" stroke="#54040c"/>
<path d="M20.7315 378.482L10.0371 378.482" stroke="#54040c"/>
<path d="M8 421.259L8 466.074" stroke="#54040c"/>
<path d="M23.2777 421.259L23 489" stroke="#54040c"/>
<path d="M15.6388 438.065L17.6758 438.065L17.6758 440.611L13.6018 440.611L13.6018 435.519L20.2221 435.519L20.2221 443.157L10.5462 443.157L10.5462 425.843L20.2221 425.843L20.2221 432.972L13.6018 432.972L13.6018 428.389L17.6758 428.389L17.6758 430.935L15.6388 430.935" stroke="#54040c"/>
<path d="M15.6388 460.472L17.6758 460.472L17.6758 463.018L13.6018 463.018L13.6018 457.926L20.2221 457.926L20.2221 465.565L10.5462 465.565L10.5462 448.25L20.2221 448.25L20.2221 455.38L13.6018 455.38L13.6018 450.796L17.6758 450.796L17.6758 453.343L15.6388 453.343" stroke="#54040c"/>
<path d="M20.7315 445.704L10.0371 445.704" stroke="#54040c"/>
<path d="M20.7315 423.296L10.0371 423.296" stroke="#54040c"/>
<path d="M8 466V489" stroke="#54040c"/>
<path d="M15.6388 482.88L17.6758 482.88L17.6758 485.426L13.6018 485.426L13.6018 480.333L20.2221 480.333L20.2221 487.972L10.5462 487.972L10.5462 470.658L20.2221 470.658L20.2221 477.787L13.6018 477.787L13.6018 473.204L17.6758 473.204L17.6758 475.75L15.6388 475.75" stroke="#54040c"/>
<path d="M20.7315 468.111L10.0371 468.111" stroke="#54040c"/>
<path d="M863.278 22L863.278 62.7406" stroke="#54040c"/>
<path d="M848 22L848 62.7406" stroke="#54040c"/>
<path d="M855.639 34.7314L853.602 34.7314L853.602 37.2777L857.676 37.2777L857.676 32.1851L851.056 32.1851L851.056 39.824L860.732 39.824L860.732 22.5092L851.056 22.5092L851.056 29.6388L857.676 29.6388L857.676 25.0555L853.602 25.0555L853.602 27.6018L855.639 27.6018" stroke="#54040c"/>
<path d="M855.639 57.1388L853.602 57.1388L853.602 59.6851L857.676 59.6851L857.676 54.5925L851.056 54.5925L851.056 62.2314L860.732 62.2314L860.732 44.9166L851.056 44.9166L851.056 52.0462L857.676 52.0462L857.676 47.4629L853.602 47.4629L853.602 50.0092L855.639 50.0092" stroke="#54040c"/>
<path d="M850.546 42.3703L861.241 42.3703" stroke="#54040c"/>
<path d="M863.278 62.7407L863.278 107.555" stroke="#54040c"/>
<path d="M848 62.7408L848 107.555" stroke="#54040c"/>
<path d="M855.639 79.5463L853.602 79.5463L853.602 82.0926L857.676 82.0926L857.676 77L851.056 77L851.056 84.6388L860.732 84.6388L860.732 67.3241L851.056 67.3241L851.056 74.4537L857.676 74.4537L857.676 69.8704L853.602 69.8704L853.602 72.4166L855.639 72.4166" stroke="#54040c"/>
<path d="M855.639 101.954L853.602 101.954L853.602 104.5L857.676 104.5L857.676 99.4073L851.056 99.4073L851.056 107.046L860.732 107.046L860.732 89.7314L851.056 89.7314L851.056 96.861L857.676 96.861L857.676 92.2777L853.602 92.2777L853.602 94.824L855.639 94.824" stroke="#54040c"/>
<path d="M850.546 87.1852L861.241 87.1852" stroke="#54040c"/>
<path d="M850.546 64.7778L861.241 64.7778" stroke="#54040c"/>
<path d="M863.278 107.556L863.278 152.37" stroke="#54040c"/>
<path d="M848 107.556L848 152.37" stroke="#54040c"/>
<path d="M855.639 124.361L853.602 124.361L853.602 126.907L857.676 126.907L857.676 121.815L851.056 121.815L851.056 129.454L860.732 129.454L860.732 112.139L851.056 112.139L851.056 119.268L857.676 119.268L857.676 114.685L853.602 114.685L853.602 117.231L855.639 117.231" stroke="#54040c"/>
<path d="M855.639 146.768L853.602 146.768L853.602 149.315L857.676 149.315L857.676 144.222L851.056 144.222L851.056 151.861L860.732 151.861L860.732 134.546L851.056 134.546L851.056 141.676L857.676 141.676L857.676 137.093L853.602 137.093L853.602 139.639L855.639 139.639" stroke="#54040c"/>
<path d="M850.546 132L861.241 132" stroke="#54040c"/>
<path d="M850.546 109.593L861.241 109.593" stroke="#54040c"/>
<path d="M863.278 152.37L863.278 197.185" stroke="#54040c"/>
<path d="M848 152.37L848 197.185" stroke="#54040c"/>
<path d="M855.639 169.176L853.602 169.176L853.602 171.722L857.676 171.722L857.676 166.63L851.056 166.63L851.056 174.269L860.732 174.269L860.732 156.954L851.056 156.954L851.056 164.083L857.676 164.083L857.676 159.5L853.602 159.5L853.602 162.046L855.639 162.046" stroke="#54040c"/>
<path d="M855.639 191.583L853.602 191.583L853.602 194.13L857.676 194.13L857.676 189.037L851.056 189.037L851.056 196.676L860.732 196.676L860.732 179.361L851.056 179.361L851.056 186.491L857.676 186.491L857.676 181.907L853.602 181.907L853.602 184.454L855.639 184.454" stroke="#54040c"/>
<path d="M850.546 176.815L861.241 176.815" stroke="#54040c"/>
<path d="M850.546 154.407L861.241 154.407" stroke="#54040c"/>
<path d="M863.278 197.185L863.278 242" stroke="#54040c"/>
<path d="M848 197.185L848 242" stroke="#54040c"/>
<path d="M855.639 213.991L853.602 213.991L853.602 216.537L857.676 216.537L857.676 211.444L851.056 211.444L851.056 219.083L860.732 219.083L860.732 201.769L851.056 201.769L851.056 208.898L857.676 208.898L857.676 204.315L853.602 204.315L853.602 206.861L855.639 206.861" stroke="#54040c"/>
<path d="M855.639 236.398L853.602 236.398L853.602 238.944L857.676 238.944L857.676 233.852L851.056 233.852L851.056 241.491L860.732 241.491L860.732 224.176L851.056 224.176L851.056 231.306L857.676 231.306L857.676 226.722L853.602 226.722L853.602 229.268L855.639 229.268" stroke="#54040c"/>
<path d="M850.546 221.63L861.241 221.63" stroke="#54040c"/>
<path d="M850.546 199.222L861.241 199.222" stroke="#54040c"/>
<path d="M863.278 242L863.278 286.815" stroke="#54040c"/>
<path d="M848 242L848 286.815" stroke="#54040c"/>
<path d="M855.639 258.806L853.602 258.806L853.602 261.352L857.676 261.352L857.676 256.259L851.056 256.259L851.056 263.898L860.732 263.898L860.732 246.583L851.056 246.583L851.056 253.713L857.676 253.713L857.676 249.13L853.602 249.13L853.602 251.676L855.639 251.676" stroke="#54040c"/>
<path d="M855.639 281.213L853.602 281.213L853.602 283.759L857.676 283.759L857.676 278.667L851.056 278.667L851.056 286.306L860.732 286.306L860.732 268.991L851.056 268.991L851.056 276.12L857.676 276.12L857.676 271.537L853.602 271.537L853.602 274.083L855.639 274.083" stroke="#54040c"/>
<path d="M850.546 266.444L861.241 266.444" stroke="#54040c"/>
<path d="M850.546 244.037L861.241 244.037" stroke="#54040c"/>
<path d="M863.278 286.815L863.278 331.63" stroke="#54040c"/>
<path d="M848 286.815L848 331.63" stroke="#54040c"/>
<path d="M855.639 303.62L853.602 303.62L853.602 306.167L857.676 306.167L857.676 301.074L851.056 301.074L851.056 308.713L860.732 308.713L860.732 291.398L851.056 291.398L851.056 298.528L857.676 298.528L857.676 293.944L853.602 293.944L853.602 296.491L855.639 296.491" stroke="#54040c"/>
<path d="M855.639 326.028L853.602 326.028L853.602 328.574L857.676 328.574L857.676 323.481L851.056 323.481L851.056 331.12L860.732 331.12L860.732 313.805L851.056 313.805L851.056 320.935L857.676 320.935L857.676 316.352L853.602 316.352L853.602 318.898L855.639 318.898" stroke="#54040c"/>
<path d="M850.546 311.259L861.241 311.259" stroke="#54040c"/>
<path d="M850.546 288.852L861.241 288.852" stroke="#54040c"/>
<path d="M863.278 331.63L863.278 376.444" stroke="#54040c"/>
<path d="M848 331.63L848 376.444" stroke="#54040c"/>
<path d="M855.639 348.435L853.602 348.435L853.602 350.981L857.676 350.981L857.676 345.889L851.056 345.889L851.056 353.528L860.732 353.528L860.732 336.213L851.056 336.213L851.056 343.343L857.676 343.343L857.676 338.759L853.602 338.759L853.602 341.306L855.639 341.306" stroke="#54040c"/>
<path d="M855.639 370.842L853.602 370.842L853.602 373.389L857.676 373.389L857.676 368.296L851.056 368.296L851.056 375.935L860.732 375.935L860.732 358.62L851.056 358.62L851.056 365.75L857.676 365.75L857.676 361.167L853.602 361.167L853.602 363.713L855.639 363.713" stroke="#54040c"/>
<path d="M850.546 356.074L861.241 356.074" stroke="#54040c"/>
<path d="M850.546 333.667L861.241 333.667" stroke="#54040c"/>
<path d="M863.278 376.445L863.278 421.259" stroke="#54040c"/>
<path d="M848 376.444L848 421.259" stroke="#54040c"/>
<path d="M855.639 393.25L853.602 393.25L853.602 395.796L857.676 395.796L857.676 390.704L851.056 390.704L851.056 398.343L860.732 398.343L860.732 381.028L851.056 381.028L851.056 388.157L857.676 388.157L857.676 383.574L853.602 383.574L853.602 386.12L855.639 386.12" stroke="#54040c"/>
<path d="M855.639 415.657L853.602 415.657L853.602 418.204L857.676 418.204L857.676 413.111L851.056 413.111L851.056 420.75L860.732 420.75L860.732 403.435L851.056 403.435L851.056 410.565L857.676 410.565L857.676 405.981L853.602 405.981L853.602 408.528L855.639 408.528" stroke="#54040c"/>
<path d="M850.546 400.889L861.241 400.889" stroke="#54040c"/>
<path d="M850.546 378.482L861.241 378.482" stroke="#54040c"/>
<path d="M863.278 421.259L863.278 466.074" stroke="#54040c"/>
<path d="M848 421.259L848.278 489" stroke="#54040c"/>
<path d="M855.639 438.065L853.602 438.065L853.602 440.611L857.676 440.611L857.676 435.519L851.056 435.519L851.056 443.157L860.732 443.157L860.732 425.843L851.056 425.843L851.056 432.972L857.676 432.972L857.676 428.389L853.602 428.389L853.602 430.935L855.639 430.935" stroke="#54040c"/>
<path d="M855.639 460.472L853.602 460.472L853.602 463.018L857.676 463.018L857.676 457.926L851.056 457.926L851.056 465.565L860.732 465.565L860.732 448.25L851.056 448.25L851.056 455.38L857.676 455.38L857.676 450.796L853.602 450.796L853.602 453.343L855.639 453.343" stroke="#54040c"/>
<path d="M850.546 445.704L861.241 445.704" stroke="#54040c"/>
<path d="M850.546 423.296L861.241 423.296" stroke="#54040c"/>
<path d="M863.278 466V489" stroke="#54040c"/>
<path d="M855.639 482.88L853.602 482.88L853.602 485.426L857.676 485.426L857.676 480.333L851.056 480.333L851.056 487.972L860.732 487.972L860.732 470.658L851.056 470.658L851.056 477.787L857.676 477.787L857.676 473.204L853.602 473.204L853.602 475.75L855.639 475.75" stroke="#54040c"/>
<path d="M850.546 468.111L861.241 468.111" stroke="#54040c"/>
<rect x="840.661" y="15.5459" width="20.9853" height="20.9853" transform="rotate(-45 840.661 15.5459)" fill="#0C0C0B" stroke="#54040c"/>
<rect x="840.661" y="494.546" width="20.9853" height="20.9853" transform="rotate(-45 840.661 494.546)" fill="#0C0C0B" stroke="#54040c"/>
<rect x="0.707107" y="494.546" width="20.9853" height="20.9853" transform="rotate(-45 0.707107 494.546)" fill="#0C0C0B" stroke="#54040c"/>
<rect x="0.707107" y="15.5459" width="20.9853" height="20.9853" transform="rotate(-45 0.707107 15.5459)" fill="#0C0C0B" stroke="#54040c"/>
</svg>
