<svg xmlns="http://www.w3.org/2000/svg" width="872" height="511" fill="none" viewBox="0 0 872 511"><path stroke="#91837c" d="M23 7.778h40.74M23 23.056h40.74m-28.009-7.64v2.038h2.547V13.38h-5.093V20h7.639v-9.676H23.509V20h7.13v-6.62h-4.583v4.074h2.546v-2.037m29.537 0v2.037h2.546V13.38h-5.093V20h7.64v-9.676H45.916V20h7.13v-6.62h-4.584v4.074h2.546v-2.037m-7.639 5.092V9.815m20.37-2.037h44.815M63.741 23.056h44.814m-28.009-7.64v2.038h2.546V13.38H78V20h7.639v-9.676H68.324V20h7.13v-6.62H70.87v4.074h2.547v-2.037m29.537 0v2.037h2.546V13.38h-5.093V20h7.639v-9.676H90.731V20h7.13v-6.62h-4.583v4.074h2.546v-2.037m-7.639 5.092V9.815M65.778 20.509V9.815m42.778-2.037h44.814m-44.814 15.278h44.814m-28.009-7.64v2.038h2.546V13.38h-5.092V20h7.639v-9.676h-17.315V20h7.129v-6.62h-4.583v4.074h2.546v-2.037m29.537 0v2.037h2.547V13.38h-5.093V20h7.639v-9.676h-17.315V20h7.13v-6.62h-4.583v4.074h2.546v-2.037M133 20.509V9.815m-22.407 10.694V9.815m42.777-2.037h44.815M153.37 23.056h44.815m-28.009-7.64v2.038h2.546V13.38h-5.092V20h7.639v-9.676h-17.315V20h7.129v-6.62H160.5v4.074h2.546v-2.037m29.537 0v2.037h2.547V13.38h-5.093V20h7.639v-9.676h-17.315V20h7.13v-6.62h-4.584v4.074h2.547v-2.037m-7.639 5.092V9.815m-22.408 10.694V9.815m42.778-2.037H243m-44.815 15.278H243m-28.009-7.64v2.038h2.546V13.38h-5.093V20h7.639v-9.676h-17.314V20h7.129v-6.62h-4.583v4.074h2.546v-2.037m29.537 0v2.037h2.546V13.38h-5.092V20h7.639v-9.676h-17.315V20h7.13v-6.62h-4.584v4.074h2.546v-2.037m-7.638 5.092V9.815m-22.408 10.694V9.815M243 7.778h44.815M243 23.056h44.815m-28.009-7.64v2.038h2.546V13.38h-5.093V20h7.639v-9.676h-17.315V20h7.13v-6.62h-4.583v4.074h2.546v-2.037m29.537 0v2.037h2.546V13.38h-5.092V20h7.638v-9.676h-17.314V20h7.129v-6.62h-4.583v4.074h2.546v-2.037m-7.638 5.092V9.815m-22.408 10.694V9.815m42.778-2.037h44.815m-44.815 15.278h44.815m-28.01-7.64v2.038h2.547V13.38h-5.093V20h7.639v-9.676h-17.315V20h7.13v-6.62h-4.584v4.074h2.547v-2.037m29.537 0v2.037h2.546V13.38h-5.093V20h7.639v-9.676h-17.314V20h7.129v-6.62h-4.583v4.074h2.546v-2.037m-7.639 5.092V9.815m-22.407 10.694V9.815m42.778-2.037h44.814M332.63 23.056h44.814m-28.009-7.64v2.038h2.546V13.38h-5.092V20h7.639v-9.676h-17.315V20h7.13v-6.62h-4.584v4.074h2.547v-2.037m29.536 0v2.037h2.547V13.38h-5.093V20h7.639v-9.676H359.62V20h7.13v-6.62h-4.583v4.074h2.546v-2.037m-7.639 5.092V9.815m-22.407 10.694V9.815m42.778-2.037h44.814m-44.815 15.278h44.815m-28.009-7.64v2.038h2.546V13.38h-5.092V20h7.639v-9.676h-17.315V20h7.129v-6.62h-4.583v4.074h2.546v-2.037m29.537 0v2.037h2.547V13.38h-5.093V20h7.639v-9.676h-17.315V20h7.13v-6.62h-4.584v4.074h2.547v-2.037m-7.639 5.092V9.815m-22.407 10.694V9.815m42.777-2.037h44.815m-44.815 15.278h44.815m-28.009-7.64v2.038h2.546V13.38h-5.092V20h7.638v-9.676h-17.314V20h7.129v-6.62h-4.583v4.074h2.546v-2.037m29.537 0v2.037h2.546V13.38h-5.092V20h7.639v-9.676H449.25V20h7.13v-6.62h-4.584v4.074h2.547v-2.037m-7.639 5.092V9.815m-22.408 10.694V9.815m42.778-2.037h44.815m-44.815 15.278h44.815m-28.009-7.64v2.038h2.546V13.38h-5.093V20h7.639v-9.676h-17.315V20h7.13v-6.62h-4.583v4.074h2.546v-2.037m29.537 0v2.037h2.546V13.38h-5.092V20h7.639v-9.676h-17.315V20h7.129v-6.62h-4.583v4.074h2.546v-2.037m-7.639 5.092V9.815m-22.407 10.694V9.815m42.778-2.037h44.815m-44.815 15.278h44.815m-28.01-7.64v2.038h2.547V13.38h-5.093V20h7.639v-9.676h-17.315V20h7.13v-6.62h-4.583v4.074h2.546v-2.037m29.537 0v2.037h2.546V13.38h-5.092V20h7.638v-9.676H538.88V20h7.129v-6.62h-4.583v4.074h2.546v-2.037m-7.639 5.092V9.815m-22.407 10.694V9.815m42.778-2.037h44.814m-44.814 15.278h44.814m-28.009-7.64v2.038h2.547V13.38h-5.093V20h7.639v-9.676h-17.315V20h7.13v-6.62h-4.584v4.074h2.547v-2.037m29.537 0v2.037h2.546V13.38h-5.093V20h7.639v-9.676h-17.315V20h7.13v-6.62h-4.583v4.074h2.546v-2.037m-7.639 5.092V9.815m-22.407 10.694V9.815m42.777-2.037h44.815m-44.815 15.278h44.815m-28.009-7.64v2.038h2.546V13.38h-5.092V20h7.639v-9.676h-17.315V20h7.129v-6.62h-4.583v4.074h2.546v-2.037m29.537 0v2.037h2.547V13.38h-5.093V20h7.639v-9.676h-17.315V20h7.13v-6.62h-4.584v4.074h2.547v-2.037m-7.639 5.092V9.815m-22.408 10.694V9.815m42.778-2.037h44.815m-44.815 15.278h44.815m-28.009-7.64v2.038h2.546V13.38h-5.092V20h7.638v-9.676h-17.314V20h7.129v-6.62h-4.583v4.074h2.546v-2.037m29.537 0v2.037h2.546V13.38H683V20h7.639v-9.676h-17.315V20h7.13v-6.62h-4.584v4.074h2.547v-2.037m-7.639 5.092V9.815M648.37 20.509V9.815m42.778-2.037h44.815m-44.815 15.278h44.815m-28.009-7.64v2.038h2.546V13.38h-5.093V20h7.639v-9.676h-17.314V20h7.129v-6.62h-4.583v4.074h2.546v-2.037m29.537 0v2.037h2.547V13.38h-5.093V20h7.639v-9.676h-17.315V20h7.13v-6.62h-4.584v4.074h2.547v-2.037m-7.639 5.092V9.815m-22.408 10.694V9.815m42.778-2.037h44.815m-44.815 15.278h44.815m-28.009-7.64v2.038h2.546V13.38h-5.093V20h7.639v-9.676h-17.315V20h7.13v-6.62h-4.583v4.074h2.546v-2.037m29.537 0v2.037h2.546V13.38h-5.092V20h7.639v-9.676h-17.315V20h7.129v-6.62H765.5v4.074h2.546v-2.037m-7.639 5.092V9.815M738 20.509V9.815m42.778-2.037h44.814m-44.814 15.278h44.815m-28.01-7.64v2.038h2.547V13.38h-5.093V20h7.639v-9.676h-17.315V20h7.13v-6.62h-4.584v4.074h2.547v-2.037m29.537 0v2.037h2.546V13.38h-5.093V20h7.639v-9.676h-17.314V20h7.129v-6.62h-4.583v4.074h2.546v-2.037m-7.639 5.092V9.815m-22.407 10.694V9.815m42.778-2.037H848m-22.407 15.278H848m-5.602-7.64v2.038h2.547V13.38h-5.093V20h7.639v-9.676h-17.315V20h7.13v-6.62h-4.584v4.074h2.547v-2.037m-7.639 5.092V9.815M23 502.278h40.74M23 487h40.74m-28.009 7.639v-2.037h2.547v4.074h-5.093v-6.62h7.639v9.676H23.509v-9.676h7.13v6.62h-4.583v-4.074h2.546v2.037m29.537 0v-2.037h2.546v4.074h-5.093v-6.62h7.64v9.676H45.916v-9.676h7.13v6.62h-4.584v-4.074h2.546v2.037m-7.639-5.093v10.695m20.37 2.037h44.815M63.741 487h44.814m-28.009 7.639v-2.037h2.546v4.074H78v-6.62h7.639v9.676H68.324v-9.676h7.13v6.62H70.87v-4.074h2.547v2.037m29.537 0v-2.037h2.546v4.074h-5.093v-6.62h7.639v9.676H90.731v-9.676h7.13v6.62h-4.583v-4.074h2.546v2.037m-7.639-5.093v10.695m-22.407-10.695v10.695m42.778 2.037h44.814M108.556 487h44.814m-28.009 7.639v-2.037h2.546v4.074h-5.092v-6.62h7.639v9.676h-17.315v-9.676h7.129v6.62h-4.583v-4.074h2.546v2.037m29.537 0v-2.037h2.547v4.074h-5.093v-6.62h7.639v9.676h-17.315v-9.676h7.13v6.62h-4.583v-4.074h2.546v2.037M133 489.546v10.695m-22.407-10.695v10.695m42.777 2.037h44.815M153.37 487h44.815m-28.009 7.639v-2.037h2.546v4.074h-5.092v-6.62h7.639v9.676h-17.315v-9.676h7.129v6.62H160.5v-4.074h2.546v2.037m29.537 0v-2.037h2.547v4.074h-5.093v-6.62h7.639v9.676h-17.315v-9.676h7.13v6.62h-4.584v-4.074h2.547v2.037m-7.639-5.093v10.695m-22.408-10.695v10.695m42.778 2.037H243M198.185 487H243m-28.009 7.639v-2.037h2.546v4.074h-5.093v-6.62h7.639v9.676h-17.314v-9.676h7.129v6.62h-4.583v-4.074h2.546v2.037m29.537 0v-2.037h2.546v4.074h-5.092v-6.62h7.639v9.676h-17.315v-9.676h7.13v6.62h-4.584v-4.074h2.546v2.037m-7.638-5.093v10.695m-22.408-10.695v10.695M243 502.278h44.815M243 487h44.815m-28.009 7.639v-2.037h2.546v4.074h-5.093v-6.62h7.639v9.676h-17.315v-9.676h7.13v6.62h-4.583v-4.074h2.546v2.037m29.537 0v-2.037h2.546v4.074h-5.092v-6.62h7.638v9.676h-17.314v-9.676h7.129v6.62h-4.583v-4.074h2.546v2.037m-7.638-5.093v10.695m-22.408-10.695v10.695m42.778 2.037h44.815M287.815 487h44.815m-28.01 7.639v-2.037h2.547v4.074h-5.093v-6.62h7.639v9.676h-17.315v-9.676h7.13v6.62h-4.584v-4.074h2.547v2.037m29.537 0v-2.037h2.546v4.074h-5.093v-6.62h7.639v9.676h-17.314v-9.676h7.129v6.62h-4.583v-4.074h2.546v2.037m-7.639-5.093v10.695m-22.407-10.695v10.695m42.778 2.037h44.814M332.63 487h44.814m-28.009 7.639v-2.037h2.546v4.074h-5.092v-6.62h7.639v9.676h-17.315v-9.676h7.13v6.62h-4.584v-4.074h2.547v2.037m29.536 0v-2.037h2.547v4.074h-5.093v-6.62h7.639v9.676H359.62v-9.676h7.13v6.62h-4.583v-4.074h2.546v2.037m-7.639-5.093v10.695m-22.407-10.695v10.695m42.778 2.037h44.814M377.444 487h44.815m-28.009 7.639v-2.037h2.546v4.074h-5.092v-6.62h7.639v9.676h-17.315v-9.676h7.129v6.62h-4.583v-4.074h2.546v2.037m29.537 0v-2.037h2.547v4.074h-5.093v-6.62h7.639v9.676h-17.315v-9.676h7.13v6.62h-4.584v-4.074h2.547v2.037m-7.639-5.093v10.695m-22.407-10.695v10.695m42.777 2.037h44.815M422.259 487h44.815m-28.009 7.639v-2.037h2.546v4.074h-5.092v-6.62h7.638v9.676h-17.314v-9.676h7.129v6.62h-4.583v-4.074h2.546v2.037m29.537 0v-2.037h2.546v4.074h-5.092v-6.62h7.639v9.676H449.25v-9.676h7.13v6.62h-4.584v-4.074h2.547v2.037m-7.639-5.093v10.695m-22.408-10.695v10.695m42.778 2.037h44.815M467.074 487h44.815m-28.009 7.639v-2.037h2.546v4.074h-5.093v-6.62h7.639v9.676h-17.315v-9.676h7.13v6.62h-4.583v-4.074h2.546v2.037m29.537 0v-2.037h2.546v4.074h-5.092v-6.62h7.639v9.676h-17.315v-9.676h7.129v6.62h-4.583v-4.074h2.546v2.037m-7.639-5.093v10.695m-22.407-10.695v10.695m42.778 2.037h44.815M511.889 487h44.815m-28.01 7.639v-2.037h2.547v4.074h-5.093v-6.62h7.639v9.676h-17.315v-9.676h7.13v6.62h-4.583v-4.074h2.546v2.037m29.537 0v-2.037h2.546v4.074h-5.092v-6.62h7.638v9.676H538.88v-9.676h7.129v6.62h-4.583v-4.074h2.546v2.037m-7.639-5.093v10.695m-22.407-10.695v10.695m42.778 2.037h44.814M556.704 487h44.814m-28.009 7.639v-2.037h2.547v4.074h-5.093v-6.62h7.639v9.676h-17.315v-9.676h7.13v6.62h-4.584v-4.074h2.547v2.037m29.537 0v-2.037h2.546v4.074h-5.093v-6.62h7.639v9.676h-17.315v-9.676h7.13v6.62h-4.583v-4.074h2.546v2.037m-7.639-5.093v10.695m-22.407-10.695v10.695m42.777 2.037h44.815M601.518 487h44.815m-28.009 7.639v-2.037h2.546v4.074h-5.092v-6.62h7.639v9.676h-17.315v-9.676h7.129v6.62h-4.583v-4.074h2.546v2.037m29.537 0v-2.037h2.547v4.074h-5.093v-6.62h7.639v9.676h-17.315v-9.676h7.13v6.62h-4.584v-4.074h2.547v2.037m-7.639-5.093v10.695m-22.408-10.695v10.695m42.778 2.037h44.815M646.333 487h44.815m-28.009 7.639v-2.037h2.546v4.074h-5.092v-6.62h7.638v9.676h-17.314v-9.676h7.129v6.62h-4.583v-4.074h2.546v2.037m29.537 0v-2.037h2.546v4.074H683v-6.62h7.639v9.676h-17.315v-9.676h7.13v6.62h-4.584v-4.074h2.547v2.037m-7.639-5.093v10.695m-22.408-10.695v10.695m42.778 2.037h44.815M691.148 487h44.815m-28.009 7.639v-2.037h2.546v4.074h-5.093v-6.62h7.639v9.676h-17.314v-9.676h7.129v6.62h-4.583v-4.074h2.546v2.037m29.537 0v-2.037h2.547v4.074h-5.093v-6.62h7.639v9.676h-17.315v-9.676h7.13v6.62h-4.584v-4.074h2.547v2.037m-7.639-5.093v10.695m-22.408-10.695v10.695m42.778 2.037h44.815M735.963 487h44.815m-28.009 7.639v-2.037h2.546v4.074h-5.093v-6.62h7.639v9.676h-17.315v-9.676h7.13v6.62h-4.583v-4.074h2.546v2.037m29.537 0v-2.037h2.546v4.074h-5.092v-6.62h7.639v9.676h-17.315v-9.676h7.129v6.62H765.5v-4.074h2.546v2.037m-7.639-5.093v10.695M738 489.546v10.695m42.778 2.037h44.814M780.778 487h44.815m-28.01 7.639v-2.037h2.547v4.074h-5.093v-6.62h7.639v9.676h-17.315v-9.676h7.13v6.62h-4.584v-4.074h2.547v2.037m29.537 0v-2.037h2.546v4.074h-5.093v-6.62h7.639v9.676h-17.314v-9.676h7.129v6.62h-4.583v-4.074h2.546v2.037m-7.639-5.093v10.695m-22.407-10.695v10.695m42.778 2.037H848M825.593 487H848m-5.602 7.639v-2.037h2.547v4.074h-5.093v-6.62h7.639v9.676h-17.315v-9.676h7.13v6.62h-4.584v-4.074h2.547v2.037m-7.639-5.093v10.695M8 22v40.74M23.278 22v40.74m-7.64-28.009h2.038v2.547h-4.074v-5.093h6.62v7.639h-9.676V22.509h9.676v7.13h-6.62v-4.583h4.074v2.546h-2.037m0 29.537h2.037v2.546h-4.074v-5.093h6.62v7.64h-9.676V44.916h9.676v7.13h-6.62v-4.584h4.074v2.546h-2.037m5.092-7.639H10.037M8 62.74v44.815m15.278-44.814v44.814m-7.64-28.009h2.038v2.547h-4.074V77h6.62v7.639h-9.676V67.324h9.676v7.13h-6.62V69.87h4.074v2.547h-2.037m0 29.537h2.037v2.546h-4.074v-5.093h6.62v7.639h-9.676V89.731h9.676v7.13h-6.62v-4.583h4.074v2.546h-2.037m5.092-7.639H10.037m10.695-22.407H10.037M8 107.556v44.814m15.278-44.814v44.814m-7.64-28.009h2.038v2.546h-4.074v-5.092h6.62v7.639h-9.676v-17.315h9.676v7.129h-6.62v-4.583h4.074v2.546h-2.037m0 29.537h2.037v2.547h-4.074v-5.093h6.62v7.639h-9.676v-17.315h9.676v7.13h-6.62v-4.583h4.074v2.546h-2.037M20.732 132H10.037m10.695-22.407H10.037M8 152.37v44.815m15.278-44.815v44.815m-7.64-28.009h2.038v2.546h-4.074v-5.092h6.62v7.639h-9.676v-17.315h9.676v7.129h-6.62V159.5h4.074v2.546h-2.037m0 29.537h2.037v2.547h-4.074v-5.093h6.62v7.639h-9.676v-17.315h9.676v7.13h-6.62v-4.584h4.074v2.547h-2.037m5.092-7.639H10.037m10.695-22.408H10.037M8 197.185V242m15.278-44.815V242m-7.64-28.009h2.038v2.546h-4.074v-5.093h6.62v7.639h-9.676v-17.314h9.676v7.129h-6.62v-4.583h4.074v2.546h-2.037m0 29.537h2.037v2.546h-4.074v-5.092h6.62v7.639h-9.676v-17.315h9.676v7.13h-6.62v-4.584h4.074v2.546h-2.037m5.092-7.638H10.037m10.695-22.408H10.037M8 242v44.815M23.278 242v44.815m-7.64-28.009h2.038v2.546h-4.074v-5.093h6.62v7.639h-9.676v-17.315h9.676v7.13h-6.62v-4.583h4.074v2.546h-2.037m0 29.537h2.037v2.546h-4.074v-5.092h6.62v7.639h-9.676v-17.315h9.676v7.129h-6.62v-4.583h4.074v2.546h-2.037m5.092-7.639H10.037m10.695-22.407H10.037M8 286.815v44.815m15.278-44.815v44.815m-7.64-28.01h2.038v2.547h-4.074v-5.093h6.62v7.639h-9.676v-17.315h9.676v7.13h-6.62v-4.584h4.074v2.547h-2.037m0 29.537h2.037v2.546h-4.074v-5.093h6.62v7.639h-9.676v-17.315h9.676v7.13h-6.62v-4.583h4.074v2.546h-2.037m5.092-7.639H10.037m10.695-22.407H10.037M8 331.63v44.814m15.278-44.814v44.814m-7.64-28.009h2.038v2.546h-4.074v-5.092h6.62v7.639h-9.676v-17.315h9.676v7.13h-6.62v-4.584h4.074v2.547h-2.037m0 29.536h2.037v2.547h-4.074v-5.093h6.62v7.639h-9.676V358.62h9.676v7.13h-6.62v-4.583h4.074v2.546h-2.037m5.092-7.639H10.037m10.695-22.407H10.037M8 376.445v44.814m15.278-44.815v44.815m-7.64-28.009h2.038v2.546h-4.074v-5.092h6.62v7.639h-9.676v-17.315h9.676v7.129h-6.62v-4.583h4.074v2.546h-2.037m0 29.537h2.037v2.547h-4.074v-5.093h6.62v7.639h-9.676v-17.315h9.676v7.13h-6.62v-4.584h4.074v2.547h-2.037m5.092-7.639H10.037m10.695-22.407H10.037M8 421.259v44.815m15.278-44.815L23 489m-7.361-50.935h2.037v2.546h-4.074v-5.092h6.62v7.638h-9.676v-17.314h9.676v7.129h-6.62v-4.583h4.074v2.546h-2.037m0 29.537h2.037v2.546h-4.074v-5.092h6.62v7.639h-9.676V448.25h9.676v7.13h-6.62v-4.584h4.074v2.547h-2.037m5.092-7.639H10.037m10.695-22.408H10.037M8 466v23m7.639-6.12h2.037v2.546h-4.074v-5.093h6.62v7.639h-9.676v-17.314h9.676v7.129h-6.62v-4.583h4.074v2.546h-2.037m5.092-7.639H10.037M863.278 22v40.74M848 22v40.74m7.639-28.009h-2.037v2.547h4.074v-5.093h-6.62v7.639h9.676V22.509h-9.676v7.13h6.62v-4.583h-4.074v2.546h2.037m0 29.537h-2.037v2.546h4.074v-5.093h-6.62v7.64h9.676V44.916h-9.676v7.13h6.62v-4.584h-4.074v2.546h2.037m-5.093-7.639h10.695m2.037 20.37v44.815M848 62.741v44.814m7.639-28.009h-2.037v2.547h4.074V77h-6.62v7.639h9.676V67.324h-9.676v7.13h6.62V69.87h-4.074v2.547h2.037m0 29.537h-2.037v2.546h4.074v-5.093h-6.62v7.639h9.676V89.731h-9.676v7.13h6.62v-4.583h-4.074v2.546h2.037m-5.093-7.639h10.695m-10.695-22.407h10.695m2.037 42.778v44.814M848 107.556v44.814m7.639-28.009h-2.037v2.546h4.074v-5.092h-6.62v7.639h9.676v-17.315h-9.676v7.129h6.62v-4.583h-4.074v2.546h2.037m0 29.537h-2.037v2.547h4.074v-5.093h-6.62v7.639h9.676v-17.315h-9.676v7.13h6.62v-4.583h-4.074v2.546h2.037M850.546 132h10.695m-10.695-22.407h10.695m2.037 42.777v44.815M848 152.37v44.815m7.639-28.009h-2.037v2.546h4.074v-5.092h-6.62v7.639h9.676v-17.315h-9.676v7.129h6.62V159.5h-4.074v2.546h2.037m0 29.537h-2.037v2.547h4.074v-5.093h-6.62v7.639h9.676v-17.315h-9.676v7.13h6.62v-4.584h-4.074v2.547h2.037m-5.093-7.639h10.695m-10.695-22.408h10.695m2.037 42.778V242M848 197.185V242m7.639-28.009h-2.037v2.546h4.074v-5.093h-6.62v7.639h9.676v-17.314h-9.676v7.129h6.62v-4.583h-4.074v2.546h2.037m0 29.537h-2.037v2.546h4.074v-5.092h-6.62v7.639h9.676v-17.315h-9.676v7.13h6.62v-4.584h-4.074v2.546h2.037m-5.093-7.638h10.695m-10.695-22.408h10.695M863.278 242v44.815M848 242v44.815m7.639-28.009h-2.037v2.546h4.074v-5.093h-6.62v7.639h9.676v-17.315h-9.676v7.13h6.62v-4.583h-4.074v2.546h2.037m0 29.537h-2.037v2.546h4.074v-5.092h-6.62v7.639h9.676v-17.315h-9.676v7.129h6.62v-4.583h-4.074v2.546h2.037m-5.093-7.639h10.695m-10.695-22.407h10.695m2.037 42.778v44.815M848 286.815v44.815m7.639-28.01h-2.037v2.547h4.074v-5.093h-6.62v7.639h9.676v-17.315h-9.676v7.13h6.62v-4.584h-4.074v2.547h2.037m0 29.537h-2.037v2.546h4.074v-5.093h-6.62v7.639h9.676v-17.315h-9.676v7.13h6.62v-4.583h-4.074v2.546h2.037m-5.093-7.639h10.695m-10.695-22.407h10.695m2.037 42.778v44.814M848 331.63v44.814m7.639-28.009h-2.037v2.546h4.074v-5.092h-6.62v7.639h9.676v-17.315h-9.676v7.13h6.62v-4.584h-4.074v2.547h2.037m0 29.536h-2.037v2.547h4.074v-5.093h-6.62v7.639h9.676V358.62h-9.676v7.13h6.62v-4.583h-4.074v2.546h2.037m-5.093-7.639h10.695m-10.695-22.407h10.695m2.037 42.778v44.814M848 376.444v44.815m7.639-28.009h-2.037v2.546h4.074v-5.092h-6.62v7.639h9.676v-17.315h-9.676v7.129h6.62v-4.583h-4.074v2.546h2.037m0 29.537h-2.037v2.547h4.074v-5.093h-6.62v7.639h9.676v-17.315h-9.676v7.13h6.62v-4.584h-4.074v2.547h2.037m-5.093-7.639h10.695m-10.695-22.407h10.695m2.037 42.777v44.815M848 421.259l.278 67.741m7.361-50.935h-2.037v2.546h4.074v-5.092h-6.62v7.638h9.676v-17.314h-9.676v7.129h6.62v-4.583h-4.074v2.546h2.037m0 29.537h-2.037v2.546h4.074v-5.092h-6.62v7.639h9.676V448.25h-9.676v7.13h6.62v-4.584h-4.074v2.547h2.037m-5.093-7.639h10.695m-10.695-22.408h10.695M863.278 466v23m-7.639-6.12h-2.037v2.546h4.074v-5.093h-6.62v7.639h9.676v-17.314h-9.676v7.129h6.62v-4.583h-4.074v2.546h2.037m-5.093-7.639h10.695"/><path fill="#0c0c0b" stroke="#91837c" d="M840.661 15.546 855.5.707l14.839 14.839-14.84 14.839zm0 479 14.839-14.839 14.839 14.839-14.84 14.839zm-839.954 0 14.839-14.839 14.839 14.839-14.84 14.839zm0-479L15.546.707l14.839 14.839-14.84 14.839z"/></svg>