<svg xmlns="http://www.w3.org/2000/svg" width="36" height="36" fill="none" viewBox="0 0 36 36"><path fill="#d0a79d" d="M18 26.47c-4.69 0-8.547-3.857-8.547-8.546S13.31 9.378 18 9.378c4.69 0 8.547 3.857 8.547 8.546 0 4.69-3.858 8.547-8.547 8.547m0-15.277c-3.706 0-6.732 3.026-6.732 6.731s3.025 6.732 6.731 6.732 6.731-3.026 6.731-6.732c0-3.705-3.025-6.73-6.73-6.73"/><path fill="#8a6f6a" d="M20.571 36H15.43l-1.437-4.387c-.984-.302-1.891-.68-2.799-1.134l-4.16 2.118-3.63-3.63 2.118-4.16c-.454-.908-.908-1.815-1.134-2.799L0 20.571V15.43l4.387-1.437c.302-.984.68-1.891 1.134-2.799l-2.118-4.16 3.63-3.63 4.16 2.118c.908-.454 1.815-.908 2.799-1.134L15.429 0h5.142l1.437 4.387c.984.302 1.891.68 2.799 1.134l4.16-2.118 3.63 3.63-2.118 4.16c.454.908.908 1.815 1.134 2.799L36 15.429v5.142l-4.387 1.437c-.302.984-.68 1.891-1.134 2.799l2.118 4.16-3.63 3.63-4.16-2.118c-.908.454-1.815.908-2.799 1.134zm-3.857-1.74h2.572l1.361-4.083.454-.152c1.134-.302 2.193-.756 3.252-1.361l.454-.227 3.857 1.966 1.815-1.815-1.966-3.857.226-.454c.605-.983 1.06-2.117 1.362-3.252l.151-.454 4.084-1.36v-2.572l-4.084-1.362-.151-.453c-.303-1.135-.756-2.27-1.361-3.253l-.227-.453 1.966-3.857-1.815-1.816-3.857 1.967-.454-.227c-.983-.605-2.118-1.059-3.252-1.361l-.454-.152-1.361-4.084h-2.572l-1.361 4.084-.454.152c-1.134.302-2.193.756-3.252 1.36l-.454.228-3.857-1.967-1.815 1.816 1.966 3.857-.226.453c-.606.984-1.06 2.118-1.362 3.252l-.151.454-4.084 1.362v2.571l4.084 1.361.151.454c.303 1.135.756 2.27 1.362 3.252l.226.454-1.966 3.857 1.815 1.815 3.857-1.966.454.227c.983.605 2.118 1.059 3.252 1.361l.454.152z"/></svg>