<svg width="59" height="59" viewBox="0 0 59 59" fill="none" xmlns="http://www.w3.org/2000/svg">
<rect x="-0.5" y="0.5" width="58" height="58" transform="matrix(-1 0 0 1 58 0)" fill="#060605" fill-opacity="0.6"/>
<rect x="-0.5" y="0.5" width="58" height="58" transform="matrix(-1 0 0 1 58 0)" stroke="#8A6F6A"/>
<path d="M29.9993 37.4706C25.3103 37.4706 21.4531 33.6135 21.4531 28.9244C21.4531 24.2353 25.3103 20.3782 29.9993 20.3782C34.6884 20.3782 38.5456 24.2353 38.5456 28.9244C38.5456 33.6135 34.6884 37.4706 29.9993 37.4706ZM29.9993 22.1933C26.2935 22.1933 23.2683 25.2185 23.2683 28.9244C23.2683 32.6303 26.2935 35.6555 29.9993 35.6555C33.7052 35.6555 36.7304 32.6303 36.7304 28.9244C36.7304 25.2185 33.7052 22.1933 29.9993 22.1933Z" fill="#8A6F6A"/>
<path d="M32.5714 47H27.4286L25.9916 42.6134C25.0084 42.3109 24.1008 41.9328 23.1933 41.479L19.0336 43.5966L15.4034 39.9664L17.521 35.8067C17.0672 34.8992 16.6134 33.9916 16.3866 33.0084L12 31.5714V26.4286L16.3866 24.9916C16.6891 24.0084 17.0672 23.1008 17.521 22.1933L15.4034 18.0336L19.0336 14.4034L23.1933 16.521C24.1008 16.0672 25.0084 15.6134 25.9916 15.3866L27.4286 11H32.5714L34.0084 15.3866C34.9916 15.6891 35.8992 16.0672 36.8067 16.521L40.9664 14.4034L44.5966 18.0336L42.479 22.1933C42.9328 23.1008 43.3866 24.0084 43.6134 24.9916L48 26.4286V31.5714L43.6134 33.0084C43.3109 33.9916 42.9328 34.8992 42.479 35.8067L44.5966 39.9664L40.9664 43.5966L36.8067 41.479C35.8992 41.9328 34.9916 42.3866 34.0084 42.6134L32.5714 47ZM28.7143 45.2605H31.2857L32.6471 41.1765L33.1008 41.0252C34.2353 40.7227 35.2941 40.2689 36.3529 39.6639L36.8067 39.437L40.6639 41.4034L42.479 39.5882L40.5126 35.7311L40.7395 35.2773C41.3445 34.2941 41.7983 33.1597 42.1008 32.0252L42.2521 31.5714L46.3361 30.2101V27.6387L42.2521 26.2773L42.1008 25.8235C41.7983 24.6891 41.3445 23.5546 40.7395 22.5714L40.5126 22.1176L42.479 18.2605L40.6639 16.4454L36.8067 18.4118L36.3529 18.1849C35.3697 17.5798 34.2353 17.126 33.1008 16.8235L32.6471 16.6723L31.2857 12.5882H28.7143L27.3529 16.6723L26.8992 16.8235C25.7647 17.126 24.7059 17.5798 23.6471 18.1849L23.1933 18.4118L19.3361 16.4454L17.521 18.2605L19.4874 22.1176L19.2605 22.5714C18.6555 23.5546 18.2017 24.6891 17.8992 25.8235L17.7479 26.2773L13.6639 27.6387V30.2101L17.7479 31.5714L17.8992 32.0252C18.2017 33.1597 18.6555 34.2941 19.2605 35.2773L19.4874 35.7311L17.521 39.5882L19.3361 41.4034L23.1933 39.437L23.6471 39.6639C24.6303 40.2689 25.7647 40.7227 26.8992 41.0252L27.3529 41.1765L28.7143 45.2605Z" fill="#8A6F6A"/>
</svg>
