<svg width="59" height="59" viewBox="0 0 59 59" fill="none" xmlns="http://www.w3.org/2000/svg">
<rect x="-0.5" y="0.5" width="58" height="58" transform="matrix(-1 0 0 1 58 0)" fill="#060605" fill-opacity="0.6"/>
<rect x="-0.5" y="0.5" width="58" height="58" transform="matrix(-1 0 0 1 58 0)" stroke="#C11326"/>
<path d="M29.9992 20.7561C34.4794 20.7561 38.167 24.444 38.1672 28.9241C38.1672 33.4043 34.4795 37.092 29.9992 37.092C25.5192 37.0919 21.8313 33.4042 21.8313 28.9241C21.8314 24.4441 25.5193 20.7563 29.9992 20.7561ZM29.9992 21.8147C26.0848 21.8149 22.89 25.0096 22.8899 28.9241C22.8899 32.8387 26.0847 36.0333 29.9992 36.0334C33.914 36.0334 37.1086 32.8388 37.1086 28.9241C37.1084 25.0095 33.9139 21.8147 29.9992 21.8147Z" fill="#C11326" stroke="#C11326" stroke-width="0.756302"/>
<path d="M32.2969 11.3779L33.6494 15.5039L33.71 15.6904L33.8975 15.748C34.8576 16.0435 35.7458 16.4134 36.6377 16.8594L36.8086 16.9443L36.9785 16.8584L40.8926 14.8643L44.1348 18.1064L42.1416 22.0215L42.0557 22.1914L42.1406 22.3623C42.5979 23.2769 43.03 24.1444 43.2451 25.0762L43.293 25.2842L43.4961 25.3506L47.6221 26.7021V31.2969L43.4961 32.6494L43.3096 32.71L43.252 32.8975C42.9565 33.8576 42.5866 34.7458 42.1406 35.6377L42.0557 35.8086L42.1416 35.9785L44.1348 39.8926L40.8926 43.1348L36.9785 41.1416L36.8086 41.0557L36.6377 41.1406C35.7231 41.5979 34.8556 42.03 33.9238 42.2451L33.7158 42.293L33.6494 42.4961L32.2969 46.6221H27.7031L26.3506 42.4961L26.29 42.3096L26.1025 42.252C25.1424 41.9565 24.2542 41.5866 23.3623 41.1406L23.1914 41.0557L23.0215 41.1416L19.1064 43.1348L15.8643 39.8926L17.8584 35.9785L17.9443 35.8086L17.8594 35.6377C17.4021 34.7231 16.97 33.8556 16.7549 32.9238L16.707 32.7158L16.5039 32.6494L12.3779 31.2969V26.7021L16.5039 25.3506L16.6904 25.29L16.748 25.1025C17.0435 24.1424 17.4134 23.2542 17.8594 22.3623L17.9443 22.1914L17.8584 22.0215L15.8643 18.1064L19.1064 14.8643L23.0215 16.8584L23.1914 16.9443L23.3623 16.8594C24.2769 16.4021 25.1444 15.97 26.0762 15.7549L26.2842 15.707L26.3506 15.5039L27.7031 11.3779H32.2969ZM46.7139 27.3662L42.5508 25.9785L42.46 25.7041C42.1521 24.5568 41.6913 23.4041 41.0742 22.3955L40.9355 22.1191L42.8154 18.4326L42.9404 18.1875L42.7461 17.9932L40.9316 16.1777L40.7373 15.9834L40.4922 16.1084L36.8047 17.9873L36.5225 17.8467C35.5126 17.2298 34.359 16.7682 33.2109 16.4609L32.9453 16.373L31.6445 12.4688L31.5586 12.21H28.4414L28.3555 12.4688L27.0537 16.373L26.7881 16.4609C25.6263 16.7721 24.5439 17.2365 23.4678 17.8506L23.1943 17.9873L19.5078 16.1084L19.2627 15.9834L19.0684 16.1777L17.2539 17.9932L17.0596 18.1875L17.1846 18.4326L19.0635 22.1191L18.9248 22.3955C18.3078 23.404 17.8479 24.557 17.54 25.7041L17.4482 25.9785L13.5439 27.2803L13.2861 27.3662V30.4824L13.5439 30.5684L17.4482 31.8691L17.54 32.1445C17.8478 33.2914 18.3081 34.4438 18.9248 35.4521L19.0635 35.7285L17.1846 39.416L17.0596 39.6611L17.2539 39.8555L19.0684 41.6709L19.2627 41.8652L19.5078 41.7402L23.1943 39.8604L23.4658 39.9961C24.478 40.6162 25.6361 41.0783 26.7881 41.3867L27.0537 41.4746L28.3555 45.3799L28.4414 45.6387H31.5586L31.6445 45.3799L32.9453 41.4746L33.2109 41.3867C34.3729 41.0756 35.455 40.6112 36.5312 39.9971L36.8047 39.8604L40.4922 41.7402L40.7373 41.8652L40.9316 41.6709L42.7461 39.8555L42.9404 39.6611L42.8154 39.416L40.9355 35.7285L41.0742 35.4521C41.6911 34.4437 42.1522 33.2916 42.46 32.1445L42.5508 31.8691L46.4561 30.5684L46.7139 30.4824V27.3662Z" fill="#C11326" stroke="#C11326" stroke-width="0.756302"/>
</svg>
