<svg xmlns="http://www.w3.org/2000/svg" width="193" height="124" fill="none" viewBox="0 0 193 124">
    <path fill="#F1ECEB"
        d="m11.581 34.38 12.716 6.983c6.325 3.228 7.181 7.906 7.181 11.266 0 9.686-8.96 11.992-15.483 11.992h-.79c-3.031-.132-6.062-1.055-6.325-1.12-1.582-.462-2.833-.594-3.69-.594-1.91 0-2.503.66-2.503.66v-11.07c1.515 5.667 7.115 9.686 12.518 9.95h.593c4.348 0 10.936-2.109 10.936-8.17 0-2.504-.395-5.469-4.282-7.709l-15.285-8.5c-3.031-1.91-4.48-5.006-4.48-8.037v-.198c.065-4.216 4.019-9.882 12.518-9.882 2.174 0 5.27.197 8.235.922v.066c1.845.527 3.294.659 4.415.659 1.186 0 1.844-.198 1.844-.198v10.278c-2.372-6.588-9.29-9.553-14.494-9.553h-.132c-4.15.066-7.38 2.767-7.38 6.786 0 3.096 1.78 4.15 3.888 5.468m23.32-13.704h31.823v9.422c-1.318-4.283-5.27-7.182-9.685-7.182h-3.492v35.117c0 1.186.33 2.306.857 3.36.527.988 1.251 1.91 2.24 2.636H44.982c1.91-1.384 3.097-3.624 3.097-5.996V22.915h-3.492c-4.414 0-8.368 2.9-9.685 7.182zm53.395-.724c11.925 0 21.611 10.014 21.611 22.335 0 12.32-9.686 22.335-21.61 22.335-11.926 0-21.611-10.015-21.611-22.335s9.685-22.335 21.61-22.335m0 42.495c9.488 0 15.813-9.026 15.813-20.16s-6.062-20.161-15.813-20.161c-9.619 0-15.812 9.026-15.812 20.16s6.259 20.161 15.812 20.161m-2.372-20.16 2.372-4.48 2.438 4.48-2.438 4.48zm44.521-4.48c.923-.791 1.713-1.714 2.306-2.834s.857-2.306.857-3.69c0-2.305-.593-4.282-1.845-5.929s-3.426-2.438-6.523-2.438h-5.336V46.37zm15.154 26.222h-11.662c.791-.857 1.186-1.845 1.186-2.9 0-.724-.198-1.383-.527-2.042l-8.302-14.956-6.39 5.337v8.565c0 1.186.263 2.306.856 3.36.593.988 1.318 1.91 2.24 2.636h-11.661c2.042-1.647 3.096-3.624 3.096-5.996V27.264c0-1.186-.263-2.438-.856-3.69-.527-1.186-1.252-2.174-2.24-2.899h14.428q6.424 0 9.883 1.78c3.459 1.78 3.426 3.425 3.426 6.654 0 2.174-.725 4.019-2.108 5.666-1.45 1.647-3.163 3.228-5.205 4.875l-.461.395-.791.593 9.949 17.723c1.251 2.306 2.964 4.151 5.139 5.667m42.561-2.636c.527.988 1.318 1.91 2.24 2.636h-11.662c1.911-1.384 3.097-3.624 3.097-5.996V25.88l-.132.132-12.386 26.222-3.097 6.391-1.186-2.57-12.452-26.222v28.001c0 1.252.329 2.438.856 3.492.593 1.054 1.45 1.977 2.438 2.702h-8.828a7.38 7.38 0 0 0 3.36-6.194V26.868c0-.988-.264-2.042-.659-2.898l-.198-.593h-.066c-.527-1.055-1.383-1.977-2.437-2.702h7.247l13.77 28.99 13.77-28.99h8.565c-1.911 1.384-3.097 4.217-3.097 6.589v30.768c0 1.186.33 2.306.857 3.36m-149.706 16.9v32.418c0 2.5 1.25 4.86 3.332 6.318H29.43c2.083-1.458 3.263-3.818 3.263-6.318V93.703H10.2v17.007c0 2.5 1.25 4.86 3.263 6.318H1.176c2.013-1.458 3.262-3.818 3.262-6.318V78.291c0-2.499-1.25-5.484-3.262-6.942h12.287c-2.013 1.458-3.263 4.443-3.263 6.942v13.051h22.492v-13.05c0-2.5-1.18-5.485-3.263-6.943h12.357c-2.083 1.458-3.332 4.443-3.332 6.942m40.918 38.737H67.084c1.25-1.042 1.944-2.569 1.944-4.096 0-.556-.07-1.18-.278-1.736l-3.124-9.232-12.287 9.927c-1.597 1.18-2.221 2.29-2.221 3.262 0 .764.416 1.389.902 1.875h-9.372c2.5-1.528 4.304-3.818 5.276-6.526l4.096-12.01 9.233-27.143 8.33 24.367.833 2.36 4.374 12.773a12.7 12.7 0 0 0 1.805 3.471c.763 1.042 1.735 1.944 2.776 2.708m-29.364-5.346 13.467-10.968c.625-.486.903-1.18.903-1.874 0-.278-.07-.556-.139-.833l-4.79-14.093-9.302 27.143c-.07.209-.14.417-.14.625m48.766 5.97c-6.317 0-11.662-2.29-16.105-6.942-4.443-4.581-6.665-10.135-6.665-16.59q0-9.685 6.665-16.662c4.443-4.581 9.788-6.872 16.105-6.872 3.055 0 5.901.555 8.608 1.735 0 .07 0 .07.07.07 1.805.694 3.401 1.041 4.72 1.041a8.5 8.5 0 0 0 2.708-.416c.277-.07.416-.07.416-.14h.139v13.538h-.07c-3.401-9.025-8.955-13.537-16.59-13.537-3.402 0-6.318.972-8.817 2.846-2.5 1.944-4.443 4.512-5.762 7.705-1.388 3.194-2.083 6.734-2.083 10.691 0 5.901 1.528 10.76 4.651 14.578 3.124 3.888 7.22 6.109 12.288 6.595l2.499.139c5.068 0 9.233-1.458 12.426-4.304.694-.625 1.874-1.805 3.54-3.679q-5.622 10.204-18.743 10.204m55.612-6.525c.902 1.597 1.735 2.916 2.499 3.818s1.735 1.597 2.985 2.083l-.278.138c-.208.07-.555.209-.972.278s-.971.139-1.735.139c-2.43 0-4.512-.972-6.387-2.985-1.11-1.041-2.082-2.499-2.985-4.235l-12.565-22.422h-.069l-6.664 5.553v17.216c0 1.25.277 2.43.833 3.61.555 1.042 1.388 1.944 2.429 2.708h-12.356c2.152-1.666 3.262-3.749 3.262-6.318V78.222c0-1.25-.277-2.5-.833-3.818-.624-1.32-1.388-2.291-2.429-3.055h12.356c-1.041.764-1.874 1.736-2.429 3.055-.556 1.319-.833 2.568-.833 3.818V90.37l13.884-11.315c1.249-.903 2.152-2.083 2.776-3.471q.417-1.041.417-2.083c0-.694-.139-1.457-.417-2.152h10.205l-9.649 7.914-5.97 4.93zm16.478-25.338 13.398 7.358c6.665 3.402 7.567 8.331 7.567 11.871 0 10.205-9.441 12.634-16.314 12.634h-.833c-3.193-.138-6.386-1.11-6.664-1.18-1.666-.486-2.985-.625-3.887-.625-2.014 0-2.638.695-2.638.695v-11.663c1.596 5.97 7.497 10.205 13.189 10.483h.625c4.582 0 11.524-2.222 11.524-8.609 0-2.637-.417-5.761-4.512-8.122l-16.106-8.955c-3.193-2.013-4.72-5.276-4.72-8.469v-.208c.069-4.443 4.234-10.413 13.189-10.413 2.291 0 5.554.208 8.678.972v.07c1.944.554 3.471.693 4.651.693 1.25 0 1.944-.208 1.944-.208v10.83c-2.499-6.943-9.788-10.066-15.273-10.066h-.138c-4.374.07-7.775 2.915-7.775 7.15 0 3.263 1.874 4.373 4.095 5.762M54.106 9.119c-1.579 0-2.618-.744-2.7-1.979l-.004-.071h1.178l.01.057c.09.591.696.958 1.559.958.868 0 1.411-.386 1.411-.977v-.005c0-.515-.357-.791-1.244-.977l-.74-.153c-1.354-.281-2.021-.91-2.021-1.936V4.03C51.559 2.82 52.623 2 54.105 2c1.503 0 2.485.791 2.557 1.969l.005.081h-1.178l-.01-.057c-.08-.601-.61-.959-1.383-.959-.806.005-1.306.382-1.306.93v.005c0 .486.376.773 1.206.944l.744.153c1.43.295 2.055.877 2.055 1.95v.005c0 1.283-1.01 2.098-2.69 2.098M57.716 9V2.119h4.388v1.035h-3.157V5.19h2.885v1.001h-2.885V9zm8.117.12C64.088 9.12 63 8.094 63 6.573V2.119h1.23v4.354c0 .953.582 1.578 1.603 1.578s1.598-.625 1.598-1.578V2.119h1.225v4.454c0 1.521-1.073 2.546-2.823 2.546m8.417 0c-1.579 0-2.618-.744-2.7-1.979l-.004-.071h1.178l.01.057c.09.591.695.958 1.559.958.867 0 1.411-.386 1.411-.977v-.005c0-.515-.358-.791-1.245-.977l-.739-.153c-1.354-.281-2.022-.91-2.022-1.936v-.005C71.702 2.82 72.766 2 74.25 2c1.502 0 2.484.791 2.556 1.969l.004.081h-1.177l-.01-.057c-.081-.601-.61-.959-1.383-.959-.806.005-1.307.382-1.307.93v.005c0 .486.377.773 1.207.944l.744.153c1.43.295 2.055.877 2.055 1.95v.005c0 1.283-1.01 2.098-2.69 2.098m6.443 0c-1.745 0-2.833-1.025-2.833-2.546V2.119h1.23v4.353c0 .954.583 1.579 1.603 1.579s1.598-.625 1.598-1.579V2.12h1.225v4.454c0 1.521-1.073 2.546-2.823 2.546M84.735 9V2.119h2.747c1.468 0 2.365.815 2.365 2.146v.01c0 .924-.496 1.673-1.297 1.964L90.052 9H88.65l-1.354-2.575h-1.33V9zm1.23-3.548h1.388c.777 0 1.235-.429 1.235-1.168v-.01c0-.72-.487-1.159-1.259-1.159h-1.364zm7.897 3.667c-2.007 0-3.257-1.364-3.257-3.586v-.005c0-2.184 1.25-3.528 3.233-3.528 1.631 0 2.69.944 2.952 2.212l.02.077h-1.25l-.015-.053c-.262-.739-.858-1.168-1.702-1.168-1.24 0-1.984.906-1.984 2.45v.006c0 1.578.777 2.527 2.017 2.527 1.04 0 1.755-.639 1.78-1.602l.004-.105h-1.707v-.959h2.908v.744c0 1.87-1.115 2.99-2.999 2.99M97.868 9V2.119h4.454v1.035h-3.224v1.855h3.047v.996h-3.047v1.96h3.224V9z" />
    <path fill="#F1ECEB" fill-rule="evenodd"
        d="M111.439 9.878a4.44 4.44 0 1 0 0-8.878 4.44 4.44 0 0 0 0 8.878m-1.284-4.121 1.557-3.987 1.201 2.047-1.511 1.061.756.944.757.945-2.407 1.845.732-2.458z"
        clip-rule="evenodd" />
    <path fill="#F1ECEB"
        d="M122.831 9.12c-1.579 0-2.618-.745-2.699-1.98l-.005-.071h1.178l.009.057c.091.591.696.958 1.56.958.867 0 1.411-.386 1.411-.977v-.005c0-.515-.358-.792-1.244-.978l-.74-.152c-1.354-.281-2.022-.91-2.022-1.936V4.03c.005-1.21 1.069-2.03 2.552-2.03 1.502 0 2.484.791 2.556 1.969l.004.081h-1.177l-.01-.057c-.081-.601-.61-.959-1.383-.959-.806.005-1.306.382-1.306.93v.005c0 .486.376.773 1.206.944l.744.153c1.431.295 2.055.877 2.055 1.95v.005c0 1.283-1.011 2.098-2.689 2.098m3.61-.119V2.119h4.387v1.035h-3.157V5.19h2.885v1.001h-2.885V9zm7.701.12c-1.579 0-2.618-.745-2.699-1.98l-.005-.071h1.178l.009.057c.091.591.697.958 1.56.958.868 0 1.411-.386 1.411-.977v-.005c0-.515-.357-.792-1.244-.978l-.739-.152c-1.355-.281-2.022-.91-2.022-1.936V4.03c.004-1.21 1.068-2.03 2.551-2.03 1.502 0 2.484.791 2.556 1.969l.005.081h-1.178l-.01-.057c-.081-.601-.61-.959-1.383-.959-.806.005-1.306.382-1.306.93v.005c0 .486.376.773 1.206.944l.744.153c1.431.295 2.055.877 2.055 1.95v.005c0 1.283-1.011 2.098-2.689 2.098m6.027 0c-1.578 0-2.618-.744-2.699-1.979l-.004-.071h1.177l.01.057c.091.591.696.958 1.559.958.868 0 1.412-.386 1.412-.977v-.005c0-.515-.358-.792-1.245-.978l-.739-.152c-1.354-.281-2.022-.911-2.022-1.936V4.03c.005-1.21 1.068-2.03 2.551-2.03 1.503 0 2.485.791 2.556 1.969l.005.081h-1.178l-.009-.057c-.081-.601-.611-.959-1.383-.959-.806.005-1.307.382-1.307.93v.005c0 .486.377.773 1.207.944l.744.153c1.43.295 2.055.877 2.055 1.95v.005c0 1.283-1.011 2.098-2.69 2.098" />
</svg>