<svg width="22" height="22" viewBox="0 0 22 22" fill="none" xmlns="http://www.w3.org/2000/svg">
<rect x="-0.367311" y="0.367311" width="21.2654" height="21.2654" transform="matrix(-1 0 0 1 21.2654 0)" fill="#060605" fill-opacity="0.6"/>
<rect x="-0.367311" y="0.367311" width="21.2654" height="21.2654" transform="matrix(-1 0 0 1 21.2654 0)" stroke="#c11326" stroke-width="0.734622"/>
<path d="M12.2822 16.4741C11.3912 16.3848 10.694 16.0564 10.1309 15.558C9.4547 14.9597 8.94153 14.0921 8.5459 13.0258L8.42578 12.6996H6.69531V9.64594H8.42578L8.5459 9.32074C8.94153 8.25441 9.4547 7.3869 10.1309 6.78851C10.6941 6.29013 11.3911 5.95973 12.2822 5.87054V16.4741Z" stroke="#c11326"/>
<path d="M14.05 8.38635C15.3165 8.89306 15.3167 13.4534 14.05 13.9601" stroke="#c11326" stroke-linecap="round"/>
</svg>
