<svg width="251" height="251" viewBox="0 0 251 251" fill="none" xmlns="http://www.w3.org/2000/svg">
<rect width="251" height="251" fill="#252121"/>
<path fill-rule="evenodd" clip-rule="evenodd" d="M167.869 86.0875C177.578 68.8038 164.589 63.1815 150.767 65.2899C150.767 65.2899 149.57 57.6372 149.414 57.2727C160.997 53.8629 171.409 52.8998 178.827 55.4246C199.39 64.8734 198.089 97.5405 140.173 136.559C117.957 151.526 104.669 157.695 87.6193 151.526C74.084 156.263 62.4227 155.326 53 147.7C92.2266 144.68 145.067 115.683 167.869 86.0875ZM79.0037 99.753L82.5959 102.226C69.3209 114.382 60.7309 127.136 63.1256 136.585C59.2212 125.991 66.3793 112.638 79.0037 99.753Z" fill="#B39792"/>
<path d="M183.777 139.057C171.624 164.563 144.723 180.888 114.4 189.874C139.86 190.713 175.094 183.218 191.194 154.49C187.622 156.956 185.36 157.718 182.153 157.543C184.539 152.325 184.978 143.4 183.777 139.057Z" fill="#B39792"/>
<path d="M151.501 100.348C144.69 106.157 136.074 112.167 129.263 116.574L129.191 116.618C126.01 118.607 122.831 120.593 119.65 122.383L74.3798 91.1337L145.691 59.0833L151.501 100.348Z" fill="#B39792"/>
<path d="M142.283 138.007L158.712 149.425L155.507 127.791C151.558 130.951 147.731 133.861 144.62 136.228C143.786 136.862 143.003 137.457 142.283 138.007Z" fill="#B39792"/>
<path d="M116.043 166.452L134.873 179.272C140.682 176.668 145.891 173.663 150.898 170.458C147.693 163.848 145.288 158.64 145.288 158.64L116.242 166.452L158.712 149.425L139.279 140.411C134.671 143.817 130.064 146.821 125.257 149.225L116.043 166.452Z" fill="#B39792"/>
<path d="M162.718 195.297C162.918 195.898 162.916 196.499 162.315 196.7C161.914 197.1 161.316 197.1 160.715 196.7L148.293 188.286C151.698 187.485 154.905 186.483 157.909 185.282C158.735 187.024 159.56 188.725 160.328 190.306L160.33 190.31L160.331 190.312L160.334 190.319L160.335 190.321C161.242 192.188 162.068 193.889 162.718 195.297Z" fill="#B39792"/>
</svg>
